<svg width="60.002808" height="70.909424" viewBox="0 0 60.0028 70.9094" fill="none" xmlns="http://www.w3.org/2000/svg" xmlns:xlink="http://www.w3.org/1999/xlink">
	<desc>
			Created with Pixso.
	</desc>
	<defs/>
	<path id="Vector" d="M19.4382 42.4589C18.1094 41.0199 16.2532 40.2275 14.2046 40.2275C12.1449 40.2275 10.2827 41.0151 8.95996 42.4451C7.6228 43.8909 6.97131 45.8557 7.12427 47.9774C7.42749 52.1632 10.6036 55.5684 14.2046 55.5684C17.8054 55.5684 20.9761 52.1639 21.2841 47.9788C21.4391 45.8762 20.7836 43.9155 19.4382 42.4589ZM26.2235 70.9092L2.18567 70.9092C1.87097 70.9133 1.55945 70.847 1.27356 70.7151C0.987671 70.5833 0.734741 70.3892 0.533081 70.147C0.0891113 69.6147 -0.0897217 68.8882 0.0427246 68.1533C0.619141 64.9468 2.41785 62.2533 5.245 60.3624C7.75671 58.6838 10.9382 57.7599 14.2046 57.7599C17.4708 57.7599 20.6525 58.6844 23.1641 60.3624C25.9912 62.2526 27.79 64.9462 28.3663 68.1526C28.4989 68.8875 28.3199 69.6141 27.8761 70.1462C27.6744 70.3887 27.4215 70.5829 27.1356 70.7148C26.8497 70.8468 26.5381 70.9132 26.2235 70.9092Z" fill="#FFFFFF" fill-opacity="1.000000" fill-rule="nonzero"/>
	<path id="Vector" d="M51.032 42.4589C49.7031 41.0199 47.8469 40.2275 45.7983 40.2275C43.7386 40.2275 41.8765 41.0151 40.5537 42.4451C39.2166 43.8909 38.5651 45.8557 38.718 47.9774C39.0212 52.1632 42.1974 55.5684 45.7983 55.5684C49.3992 55.5684 52.5698 52.1639 52.8778 47.9788C53.0328 45.8762 52.3773 43.9155 51.032 42.4589ZM57.8173 70.9092L33.7794 70.9092C33.4647 70.9133 33.1532 70.847 32.8673 70.7151C32.5814 70.5833 32.3285 70.3892 32.1268 70.147C31.6829 69.6147 31.504 68.8882 31.6365 68.1533C32.2129 64.9468 34.0116 62.2533 36.8387 60.3624C39.3505 58.6838 42.532 57.7599 45.7983 57.7599C49.0646 57.7599 52.2462 58.6844 54.7578 60.3624C57.585 62.2526 59.3838 64.9462 59.9601 68.1526C60.0927 68.8875 59.9137 69.6141 59.4698 70.1462C59.2682 70.3887 59.0153 70.5829 58.7294 70.7148C58.4435 70.8468 58.1318 70.9132 57.8173 70.9092Z" fill="#FFFFFF" fill-opacity="1.000000" fill-rule="nonzero"/>
	<path id="Vector" d="M11.6553 30.6906C11.6553 30.6965 11.6553 30.7076 11.6484 30.7231C11.651 30.7129 11.6527 30.7017 11.6553 30.6906ZM44.2778 32.1023C43.9949 32.0962 43.7153 32.0378 43.4535 31.9304L38.572 30.2007L38.5359 30.1862C38.4294 30.1417 38.3151 30.1195 38.1997 30.1208C38.0934 30.121 37.988 30.1401 37.8885 30.1775C37.7699 30.2222 36.7013 30.6234 35.5802 30.931C34.9724 31.0978 32.8567 31.6417 31.1587 31.6417C26.8188 31.6417 22.7611 29.9747 19.734 26.9475C18.2552 25.4785 17.0826 23.7311 16.2842 21.8062C15.4856 19.8811 15.0771 17.817 15.0822 15.7332C15.082 14.6475 15.1991 13.5648 15.4312 12.504C16.1869 9.01367 18.1882 5.83875 21.0665 3.56775C24.0192 1.25281 27.6641 -0.00354004 31.4166 0C35.9052 0 40.0876 1.71851 43.1947 4.82739C46.1315 7.77209 47.7408 11.6439 47.7279 15.7289C47.7253 18.7643 46.8185 21.7302 45.123 24.2485L45.1067 24.2726L45.0431 24.3585C45.0284 24.3783 45.0138 24.3972 45 24.417L44.9872 24.4402C44.953 24.4983 44.922 24.5582 44.8943 24.6198L46.2474 29.4265C46.3074 29.6248 46.3397 29.8303 46.3438 30.0375C46.3441 30.3087 46.2909 30.5774 46.1873 30.828C46.0835 31.0787 45.9314 31.3064 45.7395 31.4983C45.5476 31.6901 45.3197 31.8422 45.0688 31.9458C44.8181 32.0494 44.5493 32.1027 44.2778 32.1023Z" fill="#FFFFFF" fill-opacity="1.000000" fill-rule="nonzero"/>
	<path id="Vector" d="M32.248 33.9352C32.1588 33.7621 32.0331 33.6102 31.8795 33.49C31.7261 33.3696 31.5483 33.2837 31.3585 33.2378C30.8588 33.1061 30.2761 33.1284 29.8308 33.0957C25.627 32.8047 21.6709 31.0081 18.694 28.038C16.0474 25.4174 14.3274 22.0115 13.793 18.3333C13.6719 17.4946 13.6719 17.2864 13.6719 17.2864C13.6719 17.0066 13.5863 16.7335 13.4265 16.5033C13.2667 16.2732 13.0404 16.0969 12.7776 15.998C12.5148 15.8992 12.2279 15.8823 11.9553 15.9498C11.6826 16.0172 11.437 16.1656 11.2512 16.3755C11.2512 16.3755 10.5699 17.1141 10.2484 17.8553C9.34644 19.9249 8.96167 22.1813 9.12732 24.4312C9.29297 26.6812 10.0039 28.8575 11.1993 30.7739C11.4241 31.1467 11.4241 31.3188 11.374 31.7063C11.1379 32.921 10.7247 35.0637 10.5094 36.1752C10.4382 36.5356 10.4647 36.9084 10.5863 37.2552C10.7078 37.6021 10.92 37.9104 11.201 38.1483L11.2408 38.1819C11.6125 38.476 12.0732 38.6361 12.548 38.6365C12.8151 38.6367 13.0795 38.5844 13.326 38.4823L17.9521 36.7046C18.1115 36.6443 18.2875 36.6443 18.4467 36.7046C20.2683 37.3795 22.1642 37.7377 23.9607 37.7377C26.1991 37.7397 28.4104 37.25 30.4369 36.3035C30.9089 36.083 31.6472 35.8438 32.0795 35.3461C32.243 35.1531 32.3463 34.9166 32.3762 34.6658C32.4061 34.415 32.3617 34.161 32.248 33.9352Z" fill="#6100DC" fill-opacity="1.000000" fill-rule="nonzero"/>
	<circle id="Ellipse 365" cx="23.183594" cy="15.909180" r="2.500001" fill="#6100DC" fill-opacity="1.000000"/>
	<circle id="Ellipse 366" cx="31.589844" cy="15.909180" r="2.500001" fill="#6100DC" fill-opacity="1.000000"/>
	<circle id="Ellipse 367" cx="40.226562" cy="15.909180" r="2.500001" fill="#6100DC" fill-opacity="1.000000"/>
</svg>
