<svg width="58.181885" height="60.000000" viewBox="0 0 58.1819 60" fill="none" xmlns="http://www.w3.org/2000/svg" xmlns:xlink="http://www.w3.org/1999/xlink">
	<desc>
			Created with Pixso.
	</desc>
	<defs/>
	<path id="icon" d="M6.45996 11.5333L6.96045 11.7833C8.94556 12.8 10.5469 14.4 11.5645 16.3834L11.8147 16.8834C12.7988 18.8167 15.5681 18.8167 16.5522 16.8834L16.8025 16.3834C17.8201 14.4 19.4214 12.8 21.4065 11.7833L21.907 11.5333C23.842 10.55 23.842 7.78333 21.907 6.80005L21.4065 6.55005C19.4214 5.53333 17.8201 3.93335 16.8025 1.94995L16.5522 1.44995C15.5681 -0.483276 12.7988 -0.483276 11.8147 1.44995L11.5645 1.94995C10.5469 3.93335 8.94556 5.53333 6.96045 6.55005L6.45996 6.80005C4.5249 7.78333 4.5249 10.55 6.45996 11.5333ZM54.7029 16.7833L56.5713 19.1334L56.5381 19.1001C58.3896 21.4333 58.7065 24.5334 57.3386 27.1833C55.9707 29.8334 53.2852 31.4167 50.2991 31.2501L47.4299 31.1167L45.8118 33.5668C44.3938 35.7001 42.075 36.9333 39.5896 36.9333C39.2058 36.9333 38.8223 36.9167 38.4219 36.8501C37.4209 36.7001 36.5034 36.3501 35.686 35.8501L13.7998 57.0001C12.3318 58.4167 10.4468 59.1334 8.47852 59.1334C6.51001 59.1334 4.5415 58.3834 3.05688 56.9001C0.12085 53.9668 0.0876465 49.1501 2.97339 46.1667L24.1423 24.3C23.6418 23.4834 23.2915 22.5668 23.1416 21.5667C22.6912 18.65 23.9421 15.8167 26.4111 14.1833L28.8633 12.5667L28.7297 9.70007C28.5964 6.71667 30.1477 4.03333 32.8 2.66663C35.4524 1.30005 38.5552 1.6167 40.8906 3.46667L43.2427 5.33337L46.1621 4.26672C48.9312 3.25 51.9504 3.91663 54.0356 6C56.1208 8.08337 56.7881 11.1 55.7705 13.8667L54.7029 16.7833ZM50.5828 26.2834C52.0505 26.3501 52.7512 25.2667 52.918 24.9333L52.9348 24.9501C53.1016 24.6167 53.6021 23.4333 52.668 22.2667L50.7161 19.8167C49.6819 18.5333 49.3982 16.7667 49.9653 15.2167L51.083 12.1833C51.5835 10.8 50.7661 9.83337 50.4993 9.56665C50.2324 9.30005 49.2649 8.4834 47.8801 8.9834L44.8442 10.1C43.2927 10.6667 41.5247 10.3667 40.24 9.34998L37.7878 7.40002C37.2542 6.9834 36.7202 6.84998 36.2698 6.84998C35.7195 6.84998 35.2856 7.03333 35.1021 7.1333C34.7686 7.30005 33.6843 7.9834 33.751 9.46667L33.9011 12.4667C33.9846 14.15 33.167 15.7667 31.7659 16.6833L29.1968 18.3834C27.9624 19.2001 28.0625 20.4501 28.1125 20.8334C28.1626 21.2167 28.4629 22.4501 29.8809 22.8501L33.0171 23.75C34.6018 24.2001 35.8362 25.4167 36.2866 27.0167L37.1873 30.15C37.6045 31.5668 38.8389 31.8667 39.2058 31.9167C39.5728 31.9834 40.8406 32.0668 41.658 30.8334L43.3596 28.2667C44.2937 26.8667 45.9119 26.05 47.5801 26.1334L50.5828 26.2834ZM3.57397 28.9333L3.70752 29.2001C4.24121 30.2501 5.75928 30.2501 6.29321 29.2001L6.42651 28.9333C6.97705 27.8501 7.86108 26.9834 8.94556 26.4167L9.2124 26.2834C10.2634 25.75 10.2634 24.2334 9.2124 23.7001L8.94556 23.5668C7.86108 23.0167 6.99365 22.1334 6.42651 21.05L6.29321 20.7833C5.75928 19.7334 4.24121 19.7334 3.70752 20.7833L3.57397 21.05C3.02344 22.1334 2.1394 23 1.05518 23.5668L0.788086 23.7001C-0.262695 24.2334 -0.262695 25.75 0.788086 26.2834L1.05518 26.4167C2.1394 26.9667 3.00684 27.8501 3.57397 28.9333ZM28.0459 27.4834L24.7764 30.8667L24.7764 30.8834L27.3953 36.9668L32.5498 31.9834C32.4998 31.8334 32.4331 31.6833 32.3831 31.5334L31.5156 28.5167L28.4963 27.65C28.3462 27.6001 28.196 27.5334 28.0459 27.4834ZM18.9712 45.0834L23.5417 40.6667L23.5586 40.6667L21.0229 34.7501L16.5356 39.3834L18.9712 45.0834ZM6.61011 53.3834C7.62769 54.4001 9.3125 54.4167 10.3467 53.4167L10.3301 53.4001L15.1011 48.8L12.7322 43.2834L6.57666 49.6501C5.57593 50.7001 5.59253 52.3668 6.61011 53.3834Z" fill="#FFFFFF" fill-opacity="1.000000" fill-rule="evenodd"/>
	<path id="icon" d="M6.96045 11.7833L6.45996 11.5333C4.5249 10.55 4.5249 7.78333 6.45996 6.80005L6.96045 6.55005C8.94556 5.53333 10.5469 3.93335 11.5645 1.94995L11.8147 1.44995C12.7988 -0.483276 15.5681 -0.483276 16.5522 1.44995L16.8025 1.94995C17.8201 3.93335 19.4214 5.53333 21.4065 6.55005L21.907 6.80005C23.842 7.78333 23.842 10.55 21.907 11.5333L21.4065 11.7833C19.4214 12.8 17.8201 14.4 16.8025 16.3834L16.5522 16.8834C15.5681 18.8167 12.7988 18.8167 11.8147 16.8834L11.5645 16.3834C10.5469 14.4 8.94556 12.8 6.96045 11.7833ZM3.70752 29.2001L3.57397 28.9333C3.00684 27.8501 2.1394 26.9667 1.05518 26.4167L0.788086 26.2834C-0.262695 25.75 -0.262695 24.2334 0.788086 23.7001L1.05518 23.5668C2.1394 23 3.02344 22.1334 3.57397 21.05L3.70752 20.7833C4.24121 19.7334 5.75928 19.7334 6.29321 20.7833L6.42651 21.05C6.99365 22.1334 7.86108 23.0167 8.94556 23.5668L9.2124 23.7001C10.2634 24.2334 10.2634 25.75 9.2124 26.2834L8.94556 26.4167C7.86108 26.9834 6.97705 27.8501 6.42651 28.9333L6.29321 29.2001C5.75928 30.2501 4.24121 30.2501 3.70752 29.2001Z" fill="#FFCD29" fill-opacity="1.000000" fill-rule="evenodd"/>
	<path id="icon" d="M53.6016 48.4666L53.1011 48.2166C51.116 47.1998 49.5146 45.5999 48.4971 43.6165L48.2468 43.1165C47.2625 41.1832 44.4934 41.1832 43.5093 43.1165L43.259 43.6165C42.2415 45.5999 40.6399 47.1998 38.6548 48.2166L38.1545 48.4666C36.2192 49.4498 36.2192 52.2166 38.1545 53.1998L38.6548 53.4498C40.6399 54.4666 42.2415 56.0665 43.259 58.0499L43.5093 58.5499C44.4934 60.4832 47.2625 60.4832 48.2468 58.5499L48.4971 58.0499C49.5146 56.0665 51.116 54.4666 53.1011 53.4498L53.6016 53.1998C55.5366 52.2166 55.5366 49.4498 53.6016 48.4666Z" fill="#FFCD29" fill-opacity="1.000000" fill-rule="nonzero"/>
</svg>
