<svg width="60.000000" height="60.000000" viewBox="0 0 60 60" fill="none" xmlns="http://www.w3.org/2000/svg" xmlns:xlink="http://www.w3.org/1999/xlink">
	<desc>
			Created with Pixso.
	</desc>
	<defs/>
	<path id="Vector" d="M59.6843 0.814209C59.6599 0.695557 59.6022 0.586426 59.5179 0.499634C59.4337 0.41272 59.3265 0.351562 59.2089 0.323486C51.3646 -1.59607 33.2397 5.24463 23.4199 15.0692C21.6686 16.8081 20.0719 18.6964 18.6481 20.7128C15.6199 20.4447 12.5917 20.6686 10.0109 21.7946C2.729 25.0024 0.608887 33.3727 0.0183105 36.9733C-0.0152588 37.1704 -0.00256348 37.3726 0.0551758 37.564C0.113037 37.7552 0.214355 37.9307 0.351318 38.0762C0.488281 38.2217 0.657104 38.3334 0.844482 38.4026C1.03186 38.4717 1.23267 38.4963 1.43127 38.4747L13.1248 37.1837C13.1331 38.0662 13.1863 38.9476 13.2841 39.8246C13.343 40.4336 13.613 41.0028 14.0475 41.4332L18.5757 45.9548C19.0061 46.389 19.5746 46.6593 20.1829 46.7189C21.0542 46.8164 21.9299 46.8696 22.8065 46.8784L21.5236 58.5677C21.5021 58.7664 21.527 58.9673 21.5962 59.1548C21.6654 59.3422 21.777 59.511 21.9224 59.6481C22.0676 59.785 22.2427 59.8865 22.4337 59.9445C22.6249 60.0023 22.8267 60.0153 23.0236 59.9819C26.6143 59.4055 34.9916 57.2834 38.1777 49.9951C39.3029 47.4119 39.5332 44.3958 39.2733 41.3796C41.2927 39.9543 43.1843 38.3558 44.9265 36.6019C54.7771 26.7921 61.5728 9.05566 59.6843 0.814209ZM35.0988 24.8993C34.1992 23.9995 33.5865 22.853 33.3381 21.6047C33.0897 20.3564 33.2168 19.0625 33.7032 17.8865C34.1897 16.7104 35.0137 15.7053 36.0709 14.998C37.1283 14.2909 38.3713 13.9135 39.6429 13.9135C40.9147 13.9135 42.1577 14.2909 43.215 14.998C44.2723 15.7053 45.0963 16.7104 45.5828 17.8865C46.0691 19.0625 46.1962 20.3564 45.9479 21.6047C45.6995 22.853 45.0868 23.9995 44.1873 24.8993C43.5908 25.4971 42.8824 25.9714 42.1027 26.295C41.323 26.6187 40.4871 26.7852 39.6429 26.7852C38.7988 26.7852 37.963 26.6187 37.1833 26.295C36.4036 25.9714 35.6952 25.4971 35.0988 24.8993Z" fill="#FFFFFF" fill-opacity="1.000000" fill-rule="nonzero"/>
	<path id="Vector" d="M18.2271 49.161C17.5016 49.8878 16.338 50.1711 14.9375 50.4135C11.791 50.9497 9.01245 48.2302 9.57764 45.0488C9.79346 43.8427 10.4315 42.152 10.8286 41.7549C10.9154 41.6697 10.9731 41.5593 10.9937 41.4396C11.0143 41.3197 10.9966 41.1964 10.943 41.0872C10.8895 40.978 10.803 40.8884 10.6957 40.8312C10.5885 40.774 10.4659 40.7521 10.3455 40.7684C8.58582 40.9838 6.94885 41.7817 5.69507 43.035C2.58289 46.1504 2.28906 57.7097 2.28906 57.7097C2.28906 57.7097 13.8534 57.4158 16.9655 54.3005C18.2227 53.0476 19.0214 51.408 19.2332 49.6455C19.2821 49.0922 18.6083 48.7625 18.2271 49.161Z" fill="#FFFFFF" fill-opacity="1.000000" fill-rule="nonzero"/>
	<path id="Vector" d="M18.2271 49.161C17.5016 49.8878 16.338 50.1711 14.9375 50.4135C11.791 50.9497 9.01245 48.2302 9.57764 45.0488C9.79346 43.8427 10.4315 42.152 10.8286 41.7549C10.9154 41.6697 10.9731 41.5593 10.9937 41.4396C11.0143 41.3197 10.9966 41.1964 10.943 41.0872C10.8895 40.978 10.803 40.8884 10.6957 40.8312C10.5885 40.774 10.4659 40.7521 10.3455 40.7684C8.58582 40.9838 6.94885 41.7817 5.69507 43.035C2.58289 46.1504 2.28906 57.7097 2.28906 57.7097C2.28906 57.7097 13.8534 57.4158 16.9655 54.3005C18.2227 53.0476 19.0214 51.408 19.2332 49.6455C19.2821 49.0922 18.6083 48.7625 18.2271 49.161Z" fill="#028DFA" fill-opacity="1.000000" fill-rule="nonzero"/>
</svg>
