<svg width="20.000000" height="20.000000" viewBox="0 0 20 20" fill="none" xmlns="http://www.w3.org/2000/svg" xmlns:xlink="http://www.w3.org/1999/xlink">
	<desc>
			Created with Pixso.
	</desc>
	<defs/>
	<path id="icon" d="M1.58179 12.582L2.12732 12.8545C4.29089 13.9639 6.03638 15.709 7.14551 17.8726L7.41821 18.418C8.49097 20.5273 11.509 20.5273 12.5818 18.418L12.8545 17.8726C13.9636 15.709 15.7091 13.9639 17.8727 12.8545L18.4182 12.582C20.5272 11.5093 20.5272 8.49072 18.4182 7.41797L17.8727 7.14551C15.7091 6.03613 13.9636 4.29102 12.8545 2.12744L12.5818 1.58203C11.509 -0.527344 8.49097 -0.527344 7.41821 1.58203L7.14551 2.12744C6.03638 4.29102 4.29089 6.03613 2.12732 7.14551L1.58179 7.41797C-0.527222 8.49072 -0.527222 11.5093 1.58179 12.582Z" fill="#FFFFFF" fill-opacity="1.000000" fill-rule="nonzero"/>
</svg>
