<svg width="117.000000" height="121.000000" viewBox="0 0 117 121" fill="none" xmlns="http://www.w3.org/2000/svg" xmlns:xlink="http://www.w3.org/1999/xlink">
	<desc>
			Created with Pixso.
	</desc>
	<defs/>
	<path id="icon" d="M13.9968 23.7629L12.9905 23.2588C9.09912 21.2759 9.09912 15.6963 12.9905 13.7134L13.9968 13.2092C17.9888 11.1589 21.2092 7.93213 23.2554 3.93262L23.7585 2.92407C25.7378 -0.974609 31.3064 -0.974609 33.2856 2.92407L33.7888 3.93262C35.835 7.93213 39.0554 11.1589 43.0474 13.2092L44.0537 13.7134C47.9448 15.6963 47.9448 21.2759 44.0537 23.2588L43.0474 23.7629C39.0554 25.8132 35.835 29.04 33.7888 33.0398L33.2856 34.0481C31.3064 37.947 25.7378 37.947 23.7585 34.0481L23.2554 33.0398C21.2092 29.04 17.9888 25.8132 13.9968 23.7629ZM110.004 33.8464L113.761 38.5854L113.694 38.5183C117.418 43.2239 118.055 49.4756 115.304 54.8198C112.553 60.1638 107.153 63.3569 101.148 63.0208L95.3782 62.752L92.1243 67.6929C89.2729 71.9951 84.6101 74.4822 79.6118 74.4822C78.8403 74.4822 78.0688 74.4485 77.2637 74.3142C75.251 74.0117 73.406 73.3059 71.7622 72.2976L27.7505 114.95C24.7986 117.807 21.0078 119.252 17.0496 119.252C13.0911 119.252 9.13281 117.74 6.14722 114.748C0.243164 108.833 0.176025 99.1191 5.97949 93.1028L48.5488 49.0049C47.5425 47.3582 46.8379 45.5095 46.5359 43.4927C45.6304 37.6108 48.1462 31.897 53.1108 28.603L58.042 25.3428L57.7737 19.5618C57.5054 13.5452 60.625 8.13379 65.9587 5.37769C71.2925 2.62158 77.532 3.26025 82.2285 6.99121L86.9583 10.7556L92.8289 8.60449C98.3975 6.5542 104.469 7.89868 108.662 12.1001C112.855 16.3013 114.197 22.385 112.151 27.9644L110.004 33.8464ZM101.718 53.0046C104.67 53.1392 106.079 50.9543 106.415 50.2822L106.448 50.3159C106.784 49.6436 107.79 47.2573 105.912 44.9045L101.987 39.9636C99.907 37.3755 99.3367 33.8127 100.477 30.687L102.725 24.5698C103.731 21.78 102.087 19.8306 101.551 19.2927C101.014 18.7549 99.0684 17.1082 96.2839 18.1165L90.1787 20.3684C87.0591 21.5112 83.5032 20.906 80.9202 18.8557L75.989 14.9233C74.9155 14.083 73.842 13.8142 72.9363 13.8142C71.8293 13.8142 70.957 14.1838 70.5881 14.3855C69.9172 14.7217 67.7368 16.0996 67.8708 19.0911L68.1729 25.1411C68.3406 28.5359 66.6968 31.7961 63.8789 33.6448L58.7131 37.073C56.2307 38.72 56.4319 41.2407 56.5325 42.0139C56.6333 42.7869 57.2371 45.2742 60.0884 46.0808L66.395 47.8958C69.5818 48.8032 72.0642 51.2568 72.97 54.4836L74.7812 60.8025C75.6199 63.6594 78.1023 64.2644 78.8403 64.3652C79.5784 64.4998 82.1277 64.6677 83.7715 62.1807L87.1931 57.0044C89.0718 54.1812 92.3257 52.5342 95.6802 52.7021L101.718 53.0046ZM7.45557 58.8867L7.18701 58.3489C6.04663 56.1641 4.30225 54.3828 2.12183 53.2737L1.58496 53.0046C-0.52832 51.9292 -0.52832 48.8706 1.58496 47.7949L2.12183 47.5261C4.30225 46.3833 6.08008 44.6355 7.18701 42.4509L7.45557 41.9131C8.52905 39.7957 11.5815 39.7957 12.655 41.9131L12.9233 42.4509C14.064 44.6355 15.8083 46.417 17.9888 47.5261L18.5254 47.7949C20.6389 48.8706 20.6389 51.9292 18.5254 53.0046L17.9888 53.2737C15.8083 54.4165 14.0305 56.1641 12.9233 58.3489L12.655 58.8867C11.5815 61.0042 8.52905 61.0042 7.45557 58.8867ZM56.3984 55.4248L49.8235 62.2478L49.8235 62.2815L55.0901 74.5496L65.4556 64.4998C65.355 64.1973 65.2209 63.8948 65.1201 63.5923L63.3757 57.5085L57.3042 55.7607C57.0022 55.6599 56.7002 55.5256 56.3984 55.4248ZM38.1497 90.918L47.3411 82.011L47.3748 82.011L42.2756 70.0791L33.252 79.4231L38.1497 90.918ZM107.79 97.7412L106.784 97.2368C102.792 95.1868 99.5715 91.96 97.5251 87.9602L97.022 86.9519C95.0427 83.053 89.4741 83.053 87.4951 86.9519L86.9919 87.9602C84.9456 91.96 81.7253 95.1868 77.7334 97.2368L76.7271 97.7412C72.8357 99.7241 72.8357 105.304 76.7271 107.287L77.7334 107.791C81.7253 109.841 84.9456 113.068 86.9919 117.067L87.4951 118.076C89.4741 121.975 95.0427 121.975 97.022 118.076L97.5251 117.067C99.5715 113.068 102.792 109.841 106.784 107.791L107.79 107.287C111.681 105.304 111.681 99.7241 107.79 97.7412ZM13.2925 107.656C15.3386 109.707 18.7268 109.74 20.8066 107.724L20.7729 107.69L30.3672 98.4133L25.6035 87.2881L13.2253 100.127C11.2126 102.245 11.2461 105.606 13.2925 107.656Z" fill="#FFFFFF" fill-opacity="1.000000" fill-rule="evenodd"/>
	<path id="icon" d="M13.9968 23.7629L12.9905 23.2588C9.09912 21.2759 9.09912 15.6963 12.9905 13.7134L13.9968 13.2092C17.9888 11.1589 21.2092 7.93213 23.2554 3.93262L23.7585 2.92407C25.7378 -0.974609 31.3064 -0.974609 33.2856 2.92407L33.7888 3.93262C35.835 7.93213 39.0554 11.1589 43.0474 13.2092L44.0537 13.7134C47.9448 15.6963 47.9448 21.2759 44.0537 23.2588L43.0474 23.7629C39.0554 25.8132 35.835 29.04 33.7888 33.0398L33.2856 34.0481C31.3064 37.947 25.7378 37.947 23.7585 34.0481L23.2554 33.0398C21.2092 29.04 17.9888 25.8132 13.9968 23.7629ZM110.004 33.8464L113.761 38.5854L113.694 38.5183C117.418 43.2239 118.055 49.4756 115.304 54.8198C112.553 60.1638 107.153 63.3569 101.148 63.0208L95.3782 62.752L92.1243 67.6929C89.2729 71.9951 84.6101 74.4822 79.6118 74.4822C78.8403 74.4822 78.0688 74.4485 77.2637 74.3142C75.251 74.0117 73.406 73.3059 71.7622 72.2976L27.7505 114.95C24.7986 117.807 21.0078 119.252 17.0496 119.252C13.0911 119.252 9.13281 117.74 6.14722 114.748C0.243164 108.833 0.176025 99.1191 5.97949 93.1028L48.5488 49.0049C47.5425 47.3582 46.8379 45.5095 46.5359 43.4927C45.6304 37.6108 48.1462 31.897 53.1108 28.603L58.042 25.3428L57.7737 19.5618C57.5054 13.5452 60.625 8.13379 65.9587 5.37769C71.2925 2.62158 77.532 3.26025 82.2285 6.99121L86.9583 10.7556L92.8289 8.60449C98.3975 6.5542 104.469 7.89868 108.662 12.1001C112.855 16.3013 114.197 22.385 112.151 27.9644L110.004 33.8464ZM101.718 53.0046C104.67 53.1392 106.079 50.9543 106.415 50.2822L106.448 50.3159C106.784 49.6436 107.79 47.2573 105.912 44.9045L101.987 39.9636C99.907 37.3755 99.3367 33.8127 100.477 30.687L102.725 24.5698C103.731 21.78 102.087 19.8306 101.551 19.2927C101.014 18.7549 99.0684 17.1082 96.2839 18.1165L90.1787 20.3684C87.0591 21.5112 83.5032 20.906 80.9202 18.8557L75.989 14.9233C74.9155 14.083 73.842 13.8142 72.9363 13.8142C71.8293 13.8142 70.957 14.1838 70.5881 14.3855C69.9172 14.7217 67.7368 16.0996 67.8708 19.0911L68.1729 25.1411C68.3406 28.5359 66.6968 31.7961 63.8789 33.6448L58.7131 37.073C56.2307 38.72 56.4319 41.2407 56.5325 42.0139C56.6333 42.7869 57.2371 45.2742 60.0884 46.0808L66.395 47.8958C69.5818 48.8032 72.0642 51.2568 72.97 54.4836L74.7812 60.8025C75.6199 63.6594 78.1023 64.2644 78.8403 64.3652C79.5784 64.4998 82.1277 64.6677 83.7715 62.1807L87.1931 57.0044C89.0718 54.1812 92.3257 52.5342 95.6802 52.7021L101.718 53.0046ZM7.45557 58.8867L7.18701 58.3489C6.04663 56.1641 4.30225 54.3828 2.12183 53.2737L1.58496 53.0046C-0.52832 51.9292 -0.52832 48.8706 1.58496 47.7949L2.12183 47.5261C4.30225 46.3833 6.08008 44.6355 7.18701 42.4509L7.45557 41.9131C8.52905 39.7957 11.5815 39.7957 12.655 41.9131L12.9233 42.4509C14.064 44.6355 15.8083 46.417 17.9888 47.5261L18.5254 47.7949C20.6389 48.8706 20.6389 51.9292 18.5254 53.0046L17.9888 53.2737C15.8083 54.4165 14.0305 56.1641 12.9233 58.3489L12.655 58.8867C11.5815 61.0042 8.52905 61.0042 7.45557 58.8867ZM56.3984 55.4248L49.8235 62.2478L49.8235 62.2815L55.0901 74.5496L65.4556 64.4998C65.355 64.1973 65.2209 63.8948 65.1201 63.5923L63.3757 57.5085L57.3042 55.7607C57.0022 55.6599 56.7002 55.5256 56.3984 55.4248ZM38.1497 90.918L47.3411 82.011L47.3748 82.011L42.2756 70.0791L33.252 79.4231L38.1497 90.918ZM107.79 97.7412L106.784 97.2368C102.792 95.1868 99.5715 91.96 97.5251 87.9602L97.022 86.9519C95.0427 83.053 89.4741 83.053 87.4951 86.9519L86.9919 87.9602C84.9456 91.96 81.7253 95.1868 77.7334 97.2368L76.7271 97.7412C72.8357 99.7241 72.8357 105.304 76.7271 107.287L77.7334 107.791C81.7253 109.841 84.9456 113.068 86.9919 117.067L87.4951 118.076C89.4741 121.975 95.0427 121.975 97.022 118.076L97.5251 117.067C99.5715 113.068 102.792 109.841 106.784 107.791L107.79 107.287C111.681 105.304 111.681 99.7241 107.79 97.7412ZM13.2925 107.656C15.3386 109.707 18.7268 109.74 20.8066 107.724L20.7729 107.69L30.3672 98.4133L25.6035 87.2881L13.2253 100.127C11.2126 102.245 11.2461 105.606 13.2925 107.656Z" fill="#FFF3D6" fill-opacity="1.000000" fill-rule="evenodd"/>
</svg>
