<svg width="53.502930" height="56.356934" viewBox="0 0 53.5029 56.3569" fill="none" xmlns="http://www.w3.org/2000/svg" xmlns:xlink="http://www.w3.org/1999/xlink">
	<desc>
			Created with Pixso.
	</desc>
	<defs/>
	<path id="Subtract" d="M14.1675 56.354C14.0352 56.2974 14.067 55.7256 14.1179 54.8159C14.2295 52.8159 14.4324 49.1821 13.1846 45.7852C6.05457 40.1938 3.1178 42.4751 0.328613 24.5703C-2.46045 6.66504 13.1364 1.85547 23.1667 0.64209C33.1973 -0.571289 49.6121 -2.23633 52.7576 18.2271C55.8989 38.6621 48.468 41.5107 42.4399 43.8218L42.4148 43.8315C36.3823 46.144 27.2932 47.6699 27.2932 47.6699C27.2932 47.6699 14.5906 56.5352 14.1675 56.354ZM38.9146 18.9888C37.166 19.2002 35.9055 20.668 36.0989 22.2666C36.2922 23.8652 37.8665 24.9893 39.615 24.7778C41.3635 24.5664 42.624 23.0991 42.4307 21.5005C42.2373 19.9019 40.6631 18.7773 38.9146 18.9888ZM23.9778 23.7329C23.7843 22.1343 25.0449 20.6665 26.7935 20.4551C28.542 20.2437 30.1162 21.3682 30.3096 22.9668C30.5031 24.5654 29.2424 26.0327 27.4939 26.2441C25.7454 26.4556 24.1711 25.3315 23.9778 23.7329ZM14.6724 21.9219C12.9238 22.1333 11.6632 23.6011 11.8567 25.1997C12.05 26.7983 13.6243 27.9224 15.3728 27.7109C17.1213 27.4995 18.382 26.0322 18.1885 24.4336C17.9951 22.835 16.4209 21.7104 14.6724 21.9219Z" clip-rule="evenodd" fill="#FFFFFF" fill-opacity="1.000000" fill-rule="evenodd"/>
	<path id="Subtract" d="M14.1675 56.354C14.0352 56.2974 14.067 55.7256 14.1179 54.8159C14.2295 52.8159 14.4324 49.1821 13.1846 45.7852C6.05457 40.1938 3.1178 42.4751 0.328613 24.5703C-2.46045 6.66504 13.1364 1.85547 23.1667 0.64209C33.1973 -0.571289 49.6121 -2.23633 52.7576 18.2271C55.8989 38.6621 48.468 41.5107 42.4399 43.8218L42.4148 43.8315C36.3823 46.144 27.2932 47.6699 27.2932 47.6699C27.2932 47.6699 14.5906 56.5352 14.1675 56.354ZM38.9146 18.9888C37.166 19.2002 35.9055 20.668 36.0989 22.2666C36.2922 23.8652 37.8665 24.9893 39.615 24.7778C41.3635 24.5664 42.624 23.0991 42.4307 21.5005C42.2373 19.9019 40.6631 18.7773 38.9146 18.9888ZM23.9778 23.7329C23.7843 22.1343 25.0449 20.6665 26.7935 20.4551C28.542 20.2437 30.1162 21.3682 30.3096 22.9668C30.5031 24.5654 29.2424 26.0327 27.4939 26.2441C25.7454 26.4556 24.1711 25.3315 23.9778 23.7329ZM14.6724 21.9219C12.9238 22.1333 11.6632 23.6011 11.8567 25.1997C12.05 26.7983 13.6243 27.9224 15.3728 27.7109C17.1213 27.4995 18.382 26.0322 18.1885 24.4336C17.9951 22.835 16.4209 21.7104 14.6724 21.9219Z" clip-rule="evenodd" fill="#4A18C1" fill-opacity="1.000000" fill-rule="evenodd"/>
	<path id="Subtract" d="M14.1675 56.354C14.0352 56.2974 14.067 55.7256 14.1179 54.8159C14.2295 52.8159 14.4324 49.1821 13.1846 45.7852C6.05457 40.1938 3.1178 42.4751 0.328613 24.5703C-2.46045 6.66504 13.1364 1.85547 23.1667 0.64209C33.1973 -0.571289 49.6121 -2.23633 52.7576 18.2271C55.8989 38.6621 48.468 41.5107 42.4399 43.8218L42.4148 43.8315C36.3823 46.144 27.2932 47.6699 27.2932 47.6699C27.2932 47.6699 14.5906 56.5352 14.1675 56.354ZM38.9146 18.9888C37.166 19.2002 35.9055 20.668 36.0989 22.2666C36.2922 23.8652 37.8665 24.9893 39.615 24.7778C41.3635 24.5664 42.624 23.0991 42.4307 21.5005C42.2373 19.9019 40.6631 18.7773 38.9146 18.9888ZM23.9778 23.7329C23.7843 22.1343 25.0449 20.6665 26.7935 20.4551C28.542 20.2437 30.1162 21.3682 30.3096 22.9668C30.5031 24.5654 29.2424 26.0327 27.4939 26.2441C25.7454 26.4556 24.1711 25.3315 23.9778 23.7329ZM14.6724 21.9219C12.9238 22.1333 11.6632 23.6011 11.8567 25.1997C12.05 26.7983 13.6243 27.9224 15.3728 27.7109C17.1213 27.4995 18.382 26.0322 18.1885 24.4336C17.9951 22.835 16.4209 21.7104 14.6724 21.9219Z" clip-rule="evenodd" fill="#FFFFFF" fill-opacity="1.000000" fill-rule="evenodd"/>
</svg>
