<svg width="58.130005" height="60.000000" viewBox="0 0 58.13 60" fill="none" xmlns="http://www.w3.org/2000/svg" xmlns:xlink="http://www.w3.org/1999/xlink">
	<desc>
			Created with Pixso.
	</desc>
	<defs/>
	<path id="icon" d="M6.95422 11.7832L6.45422 11.5332C4.52087 10.5498 4.52087 7.7832 6.45422 6.7998L6.95422 6.5498C8.9375 5.5332 10.5375 3.93311 11.5542 1.9502L11.8042 1.4502C12.7875 -0.483398 15.5542 -0.483398 16.5375 1.4502L16.7875 1.9502C17.8042 3.93311 19.4042 5.5332 21.3875 6.5498L21.8875 6.7998C23.8208 7.7832 23.8208 10.5498 21.8875 11.5332L21.3875 11.7832C19.4042 12.7998 17.8042 14.3999 16.7875 16.3833L16.5375 16.8833C15.5542 18.8169 12.7875 18.8169 11.8042 16.8833L11.5542 16.3833C10.5375 14.3999 8.9375 12.7998 6.95422 11.7832ZM54.6542 16.7832L56.5209 19.1333L56.4875 19.1001C58.3375 21.4331 58.6542 24.5332 57.2875 27.1831C55.9209 29.8335 53.2375 31.4165 50.2542 31.25L47.3875 31.1167L45.7709 33.5669C44.3541 35.7002 42.0375 36.9331 39.5542 36.9331C39.1708 36.9331 38.7875 36.9165 38.3875 36.8501C37.3875 36.7002 36.4708 36.3501 35.6542 35.8501L13.7875 57C12.3208 58.4165 10.4375 59.1333 8.47083 59.1333C6.50415 59.1333 4.53748 58.3833 3.0542 56.8999C0.12085 53.9668 0.0875244 49.1499 2.97083 46.1665L24.1208 24.2998C23.6208 23.4834 23.2709 22.5669 23.1208 21.5669C22.6708 18.6499 23.9208 15.8169 26.3875 14.1831L28.8375 12.5669L28.7042 9.7002C28.5708 6.7168 30.1208 4.0332 32.7709 2.6665C35.4208 1.2998 38.5209 1.6167 40.8541 3.4668L43.2042 5.3335L46.1208 4.2666C48.8875 3.25 51.9042 3.9165 53.9875 6C56.0708 8.0835 56.7375 11.1001 55.7208 13.8667L54.6542 16.7832ZM50.5375 26.2832C52.0042 26.3501 52.7042 25.2666 52.8708 24.9331L52.8875 24.9502C53.0542 24.6167 53.5542 23.4331 52.6208 22.2666L50.6709 19.8169C49.6375 18.5332 49.3541 16.7666 49.9208 15.2168L51.0375 12.1831C51.5375 10.7998 50.7208 9.8335 50.4542 9.56689C50.1875 9.2998 49.2208 8.4834 47.8375 8.9834L44.8042 10.1001C43.2542 10.6665 41.4875 10.3667 40.2042 9.3501L37.7542 7.3999C37.2208 6.9834 36.6875 6.8501 36.2375 6.8501C35.6875 6.8501 35.2542 7.0332 35.0708 7.1333C34.7375 7.2998 33.6542 7.9834 33.7208 9.4668L33.8708 12.4668C33.9542 14.1499 33.1375 15.7666 31.7375 16.6831L29.1708 18.3833C27.9375 19.2002 28.0375 20.4502 28.0875 20.8335C28.1375 21.2168 28.4375 22.4502 29.8541 22.8501L32.9875 23.75C34.5708 24.2002 35.8042 25.4165 36.2542 27.0166L37.1542 30.1499C37.5708 31.5669 38.8042 31.8667 39.1708 31.9165C39.5375 31.9834 40.8042 32.0669 41.6208 30.8335L43.3208 28.2666C44.2542 26.8667 45.8708 26.0498 47.5375 26.1333L50.5375 26.2832ZM3.70422 29.2002L3.5708 28.9331C3.00415 27.8501 2.13745 26.9668 1.0542 26.4165L0.787476 26.2832C-0.262451 25.75 -0.262451 24.2334 0.787476 23.7002L1.0542 23.5669C2.13745 23 3.02087 22.1333 3.5708 21.0498L3.70422 20.7832C4.23755 19.7334 5.75415 19.7334 6.28748 20.7832L6.42078 21.0498C6.98755 22.1333 7.85413 23.0166 8.9375 23.5669L9.20422 23.7002C10.2542 24.2334 10.2542 25.75 9.20422 26.2832L8.9375 26.4165C7.85413 26.9834 6.97083 27.8501 6.42078 28.9331L6.28748 29.2002C5.75415 30.25 4.23755 30.25 3.70422 29.2002ZM28.0209 27.4834L24.7542 30.8667L24.7542 30.8833L27.3708 36.9668L32.5209 31.9834C32.4708 31.8335 32.4042 31.6831 32.3541 31.5332L31.4875 28.5166L28.4708 27.6499C28.3208 27.6001 28.1708 27.5332 28.0209 27.4834ZM18.9542 45.0835L23.5209 40.6665L23.5375 40.6665L21.0042 34.75L16.5209 39.3833L18.9542 45.0835ZM53.5542 48.4668L53.0542 48.2168C51.0708 47.2002 49.4708 45.6001 48.4541 43.6167L48.2041 43.1167C47.2208 41.1831 44.4542 41.1831 43.4708 43.1167L43.2208 43.6167C42.2041 45.6001 40.6041 47.2002 38.6208 48.2168L38.1208 48.4668C36.1875 49.4502 36.1875 52.2168 38.1208 53.2002L38.6208 53.4502C40.6041 54.4668 42.2041 56.0669 43.2208 58.0498L43.4708 58.5498C44.4542 60.4834 47.2208 60.4834 48.2041 58.5498L48.4541 58.0498C49.4708 56.0669 51.0708 54.4668 53.0542 53.4502L53.5542 53.2002C55.4875 52.2168 55.4875 49.4502 53.5542 48.4668ZM6.60413 53.3833C7.62085 54.3999 9.3042 54.4165 10.3375 53.4165L10.3208 53.3999L15.0875 48.7998L12.7208 43.2832L6.5708 49.6499C5.5708 50.7002 5.58752 52.3667 6.60413 53.3833Z" fill="#FFFFFF" fill-opacity="1.000000" fill-rule="evenodd"/>
	<path id="icon" d="M6.95422 11.7832L6.45422 11.5332C4.52087 10.5498 4.52087 7.7832 6.45422 6.7998L6.95422 6.5498C8.9375 5.5332 10.5375 3.93311 11.5542 1.9502L11.8042 1.4502C12.7875 -0.483398 15.5542 -0.483398 16.5375 1.4502L16.7875 1.9502C17.8042 3.93311 19.4042 5.5332 21.3875 6.5498L21.8875 6.7998C23.8208 7.7832 23.8208 10.5498 21.8875 11.5332L21.3875 11.7832C19.4042 12.7998 17.8042 14.3999 16.7875 16.3833L16.5375 16.8833C15.5542 18.8169 12.7875 18.8169 11.8042 16.8833L11.5542 16.3833C10.5375 14.3999 8.9375 12.7998 6.95422 11.7832ZM54.6542 16.7832L56.5209 19.1333L56.4875 19.1001C58.3375 21.4331 58.6542 24.5332 57.2875 27.1831C55.9209 29.8335 53.2375 31.4165 50.2542 31.25L47.3875 31.1167L45.7709 33.5669C44.3541 35.7002 42.0375 36.9331 39.5542 36.9331C39.1708 36.9331 38.7875 36.9165 38.3875 36.8501C37.3875 36.7002 36.4708 36.3501 35.6542 35.8501L13.7875 57C12.3208 58.4165 10.4375 59.1333 8.47083 59.1333C6.50415 59.1333 4.53748 58.3833 3.0542 56.8999C0.12085 53.9668 0.0875244 49.1499 2.97083 46.1665L24.1208 24.2998C23.6208 23.4834 23.2709 22.5669 23.1208 21.5669C22.6708 18.6499 23.9208 15.8169 26.3875 14.1831L28.8375 12.5669L28.7042 9.7002C28.5708 6.7168 30.1208 4.0332 32.7709 2.6665C35.4208 1.2998 38.5209 1.6167 40.8541 3.4668L43.2042 5.3335L46.1208 4.2666C48.8875 3.25 51.9042 3.9165 53.9875 6C56.0708 8.0835 56.7375 11.1001 55.7208 13.8667L54.6542 16.7832ZM50.5375 26.2832C52.0042 26.3501 52.7042 25.2666 52.8708 24.9331L52.8875 24.9502C53.0542 24.6167 53.5542 23.4331 52.6208 22.2666L50.6709 19.8169C49.6375 18.5332 49.3541 16.7666 49.9208 15.2168L51.0375 12.1831C51.5375 10.7998 50.7208 9.8335 50.4542 9.56689C50.1875 9.2998 49.2208 8.4834 47.8375 8.9834L44.8042 10.1001C43.2542 10.6665 41.4875 10.3667 40.2042 9.3501L37.7542 7.3999C37.2208 6.9834 36.6875 6.8501 36.2375 6.8501C35.6875 6.8501 35.2542 7.0332 35.0708 7.1333C34.7375 7.2998 33.6542 7.9834 33.7208 9.4668L33.8708 12.4668C33.9542 14.1499 33.1375 15.7666 31.7375 16.6831L29.1708 18.3833C27.9375 19.2002 28.0375 20.4502 28.0875 20.8335C28.1375 21.2168 28.4375 22.4502 29.8541 22.8501L32.9875 23.75C34.5708 24.2002 35.8042 25.4165 36.2542 27.0166L37.1542 30.1499C37.5708 31.5669 38.8042 31.8667 39.1708 31.9165C39.5375 31.9834 40.8042 32.0669 41.6208 30.8335L43.3208 28.2666C44.2542 26.8667 45.8708 26.0498 47.5375 26.1333L50.5375 26.2832ZM3.70422 29.2002L3.5708 28.9331C3.00415 27.8501 2.13745 26.9668 1.0542 26.4165L0.787476 26.2832C-0.262451 25.75 -0.262451 24.2334 0.787476 23.7002L1.0542 23.5669C2.13745 23 3.02087 22.1333 3.5708 21.0498L3.70422 20.7832C4.23755 19.7334 5.75415 19.7334 6.28748 20.7832L6.42078 21.0498C6.98755 22.1333 7.85413 23.0166 8.9375 23.5669L9.20422 23.7002C10.2542 24.2334 10.2542 25.75 9.20422 26.2832L8.9375 26.4165C7.85413 26.9834 6.97083 27.8501 6.42078 28.9331L6.28748 29.2002C5.75415 30.25 4.23755 30.25 3.70422 29.2002ZM28.0209 27.4834L24.7542 30.8667L24.7542 30.8833L27.3708 36.9668L32.5209 31.9834C32.4708 31.8335 32.4042 31.6831 32.3541 31.5332L31.4875 28.5166L28.4708 27.6499C28.3208 27.6001 28.1708 27.5332 28.0209 27.4834ZM18.9542 45.0835L23.5209 40.6665L23.5375 40.6665L21.0042 34.75L16.5209 39.3833L18.9542 45.0835ZM53.5542 48.4668L53.0542 48.2168C51.0708 47.2002 49.4708 45.6001 48.4541 43.6167L48.2041 43.1167C47.2208 41.1831 44.4542 41.1831 43.4708 43.1167L43.2208 43.6167C42.2041 45.6001 40.6041 47.2002 38.6208 48.2168L38.1208 48.4668C36.1875 49.4502 36.1875 52.2168 38.1208 53.2002L38.6208 53.4502C40.6041 54.4668 42.2041 56.0669 43.2208 58.0498L43.4708 58.5498C44.4542 60.4834 47.2208 60.4834 48.2041 58.5498L48.4541 58.0498C49.4708 56.0669 51.0708 54.4668 53.0542 53.4502L53.5542 53.2002C55.4875 52.2168 55.4875 49.4502 53.5542 48.4668ZM6.60413 53.3833C7.62085 54.3999 9.3042 54.4165 10.3375 53.4165L10.3208 53.3999L15.0875 48.7998L12.7208 43.2832L6.5708 49.6499C5.5708 50.7002 5.58752 52.3667 6.60413 53.3833Z" fill="#4A18C1" fill-opacity="1.000000" fill-rule="evenodd"/>
	<path id="icon" d="M6.95422 11.7832L6.45422 11.5332C4.52087 10.5498 4.52087 7.7832 6.45422 6.7998L6.95422 6.5498C8.9375 5.5332 10.5375 3.93311 11.5542 1.9502L11.8042 1.4502C12.7875 -0.483398 15.5542 -0.483398 16.5375 1.4502L16.7875 1.9502C17.8042 3.93311 19.4042 5.5332 21.3875 6.5498L21.8875 6.7998C23.8208 7.7832 23.8208 10.5498 21.8875 11.5332L21.3875 11.7832C19.4042 12.7998 17.8042 14.3999 16.7875 16.3833L16.5375 16.8833C15.5542 18.8169 12.7875 18.8169 11.8042 16.8833L11.5542 16.3833C10.5375 14.3999 8.9375 12.7998 6.95422 11.7832ZM54.6542 16.7832L56.5209 19.1333L56.4875 19.1001C58.3375 21.4331 58.6542 24.5332 57.2875 27.1831C55.9209 29.8335 53.2375 31.4165 50.2542 31.25L47.3875 31.1167L45.7709 33.5669C44.3541 35.7002 42.0375 36.9331 39.5542 36.9331C39.1708 36.9331 38.7875 36.9165 38.3875 36.8501C37.3875 36.7002 36.4708 36.3501 35.6542 35.8501L13.7875 57C12.3208 58.4165 10.4375 59.1333 8.47083 59.1333C6.50415 59.1333 4.53748 58.3833 3.0542 56.8999C0.12085 53.9668 0.0875244 49.1499 2.97083 46.1665L24.1208 24.2998C23.6208 23.4834 23.2709 22.5669 23.1208 21.5669C22.6708 18.6499 23.9208 15.8169 26.3875 14.1831L28.8375 12.5669L28.7042 9.7002C28.5708 6.7168 30.1208 4.0332 32.7709 2.6665C35.4208 1.2998 38.5209 1.6167 40.8541 3.4668L43.2042 5.3335L46.1208 4.2666C48.8875 3.25 51.9042 3.9165 53.9875 6C56.0708 8.0835 56.7375 11.1001 55.7208 13.8667L54.6542 16.7832ZM50.5375 26.2832C52.0042 26.3501 52.7042 25.2666 52.8708 24.9331L52.8875 24.9502C53.0542 24.6167 53.5542 23.4331 52.6208 22.2666L50.6709 19.8169C49.6375 18.5332 49.3541 16.7666 49.9208 15.2168L51.0375 12.1831C51.5375 10.7998 50.7208 9.8335 50.4542 9.56689C50.1875 9.2998 49.2208 8.4834 47.8375 8.9834L44.8042 10.1001C43.2542 10.6665 41.4875 10.3667 40.2042 9.3501L37.7542 7.3999C37.2208 6.9834 36.6875 6.8501 36.2375 6.8501C35.6875 6.8501 35.2542 7.0332 35.0708 7.1333C34.7375 7.2998 33.6542 7.9834 33.7208 9.4668L33.8708 12.4668C33.9542 14.1499 33.1375 15.7666 31.7375 16.6831L29.1708 18.3833C27.9375 19.2002 28.0375 20.4502 28.0875 20.8335C28.1375 21.2168 28.4375 22.4502 29.8541 22.8501L32.9875 23.75C34.5708 24.2002 35.8042 25.4165 36.2542 27.0166L37.1542 30.1499C37.5708 31.5669 38.8042 31.8667 39.1708 31.9165C39.5375 31.9834 40.8042 32.0669 41.6208 30.8335L43.3208 28.2666C44.2542 26.8667 45.8708 26.0498 47.5375 26.1333L50.5375 26.2832ZM3.70422 29.2002L3.5708 28.9331C3.00415 27.8501 2.13745 26.9668 1.0542 26.4165L0.787476 26.2832C-0.262451 25.75 -0.262451 24.2334 0.787476 23.7002L1.0542 23.5669C2.13745 23 3.02087 22.1333 3.5708 21.0498L3.70422 20.7832C4.23755 19.7334 5.75415 19.7334 6.28748 20.7832L6.42078 21.0498C6.98755 22.1333 7.85413 23.0166 8.9375 23.5669L9.20422 23.7002C10.2542 24.2334 10.2542 25.75 9.20422 26.2832L8.9375 26.4165C7.85413 26.9834 6.97083 27.8501 6.42078 28.9331L6.28748 29.2002C5.75415 30.25 4.23755 30.25 3.70422 29.2002ZM28.0209 27.4834L24.7542 30.8667L24.7542 30.8833L27.3708 36.9668L32.5209 31.9834C32.4708 31.8335 32.4042 31.6831 32.3541 31.5332L31.4875 28.5166L28.4708 27.6499C28.3208 27.6001 28.1708 27.5332 28.0209 27.4834ZM18.9542 45.0835L23.5209 40.6665L23.5375 40.6665L21.0042 34.75L16.5209 39.3833L18.9542 45.0835ZM53.5542 48.4668L53.0542 48.2168C51.0708 47.2002 49.4708 45.6001 48.4541 43.6167L48.2041 43.1167C47.2208 41.1831 44.4542 41.1831 43.4708 43.1167L43.2208 43.6167C42.2041 45.6001 40.6041 47.2002 38.6208 48.2168L38.1208 48.4668C36.1875 49.4502 36.1875 52.2168 38.1208 53.2002L38.6208 53.4502C40.6041 54.4668 42.2041 56.0669 43.2208 58.0498L43.4708 58.5498C44.4542 60.4834 47.2208 60.4834 48.2041 58.5498L48.4541 58.0498C49.4708 56.0669 51.0708 54.4668 53.0542 53.4502L53.5542 53.2002C55.4875 52.2168 55.4875 49.4502 53.5542 48.4668ZM6.60413 53.3833C7.62085 54.3999 9.3042 54.4165 10.3375 53.4165L10.3208 53.3999L15.0875 48.7998L12.7208 43.2832L6.5708 49.6499C5.5708 50.7002 5.58752 52.3667 6.60413 53.3833Z" fill="#FFFFFF" fill-opacity="1.000000" fill-rule="evenodd"/>
</svg>
