<svg width="30.000000" height="30.000000" viewBox="0 0 30 30" fill="none" xmlns="http://www.w3.org/2000/svg" xmlns:xlink="http://www.w3.org/1999/xlink">
	<desc>
			Created with Pixso.
	</desc>
	<defs/>
	<path id="icon" d="M2.3728 18.8728L3.19092 19.2817C6.43628 20.9456 9.05444 23.5637 10.7183 26.8091L11.1272 27.6272C12.7363 30.791 17.2637 30.791 18.8728 27.6272L19.2817 26.8091C20.9456 23.5637 23.5637 20.9456 26.8091 19.2817L27.6272 18.8728C30.791 17.2637 30.791 12.7363 27.6272 11.1272L26.8091 10.7183C23.5637 9.05444 20.9456 6.43628 19.2817 3.19092L18.8728 2.3728C17.2637 -0.791016 12.7363 -0.791016 11.1272 2.3728L10.7183 3.19092C9.05444 6.43628 6.43628 9.05444 3.19092 10.7183L2.3728 11.1272C-0.791016 12.7363 -0.791016 17.2637 2.3728 18.8728Z" fill="#FFCD29" fill-opacity="1.000000" fill-rule="nonzero"/>
</svg>
