<svg width="202.000000" height="60.000000" viewBox="0 0 202 60" fill="none" xmlns="http://www.w3.org/2000/svg" xmlns:xlink="http://www.w3.org/1999/xlink">
	<desc>
			Created with Pixso.
	</desc>
	<defs>
		<clipPath id="clip1_474">
			<rect id="Логотип 1" width="202.000000" height="60.000000" fill="white" fill-opacity="0"/>
		</clipPath>
	</defs>
	<rect id="Логотип 1" width="202.000000" height="60.000000" fill="#FFFFFF" fill-opacity="0"/>
	<g clip-path="url(#clip1_474)">
		<path id="Vector" d="M75.3643 39.499L71.1921 39.499C70.5959 39.499 70 39.0215 70 38.3052L70 23.502C70 22.9048 70.4768 22.3081 71.1921 22.3081L75.3643 22.3081C76.7947 22.3081 78.106 22.5469 79.298 22.9048C80.49 23.3823 81.4437 23.9795 82.1589 24.6958C82.9934 25.5312 83.4702 26.3672 83.947 27.4414C84.3046 28.5161 84.543 29.5903 84.543 30.7842C84.543 31.978 84.3046 33.0527 83.947 34.127C83.5894 35.2012 82.9934 36.1562 82.1589 36.8726C81.4437 37.5889 80.3708 38.3052 79.298 38.6636C78.2252 39.2603 76.9139 39.499 75.3643 39.499ZM72.8608 36.6338L75.3643 36.6338C76.4371 36.6338 77.3907 36.5146 78.2251 36.1562C78.9404 35.9175 79.6556 35.4399 80.1324 34.9624C80.6093 34.4849 80.9669 33.8882 81.2053 33.1719C81.4437 32.4556 81.5629 31.6201 81.5629 30.7842C81.5629 29.9487 81.4437 29.1128 81.2053 28.3965C80.9669 27.6802 80.6093 27.0835 80.1324 26.606C79.6556 26.1284 79.0596 25.77 78.2251 25.4121C77.3907 25.1733 76.4371 24.9346 75.3643 24.9346L72.8608 24.9346L72.8608 36.6338Z" fill="#151515" fill-opacity="1.000000" fill-rule="nonzero"/>
		<path id="Vector" d="M140.574 39.3799C139.62 39.3799 138.547 39.2603 137.594 39.0215C136.64 38.7827 135.686 38.4248 134.971 38.0664C134.613 37.8276 134.375 37.4697 134.375 36.9922L134.375 36.5146C134.375 36.1562 134.613 35.6787 134.971 35.5596C135.329 35.3208 135.805 35.3208 136.163 35.5596C136.759 35.918 137.474 36.1562 138.19 36.395C139.501 36.7534 140.812 36.7534 142.004 36.5146C142.362 36.395 142.719 36.2759 143.077 36.1562C143.315 36.0371 143.554 35.7983 143.673 35.5596C143.792 35.3208 143.911 35.082 143.911 34.7241C143.911 34.3657 143.792 34.0078 143.673 33.769C143.435 33.5303 143.315 33.2915 142.958 33.0527C142.6 32.814 142.243 32.5752 141.766 32.4556C141.17 32.2168 140.693 32.0977 140.097 31.8589C139.501 31.6201 138.905 31.5005 138.309 31.2617C137.713 31.0229 137.117 30.665 136.521 30.3066C135.925 29.9487 135.567 29.4712 135.209 28.874C134.852 28.2773 134.613 27.4414 134.613 26.606C134.613 25.77 134.852 25.0537 135.209 24.457C135.567 23.8604 136.044 23.3828 136.64 22.9053C137.236 22.5469 137.832 22.3081 138.428 22.0693C139.858 21.7114 141.408 21.7114 142.958 22.0693C143.792 22.3081 144.507 22.5469 145.223 22.9053C145.58 23.144 145.819 23.502 145.819 23.9795L145.819 24.457C145.819 24.9346 145.58 25.293 145.223 25.5317C144.865 25.77 144.388 25.77 144.031 25.5317C143.554 25.293 143.077 25.0537 142.362 24.9346C141.766 24.8154 141.05 24.6958 140.454 24.6958C139.978 24.6958 139.62 24.6958 139.143 24.8154C138.786 24.9346 138.428 25.0537 138.19 25.1733C137.951 25.293 137.832 25.5317 137.594 25.77C137.474 26.0088 137.355 26.248 137.355 26.606C137.355 27.2026 137.594 27.4414 137.713 27.6802C138.07 28.0386 138.547 28.2773 139.024 28.6353C139.62 28.874 140.335 29.1128 141.17 29.3516C142.004 29.5903 142.839 29.9487 143.554 30.3066C144.388 30.665 145.103 31.2617 145.699 31.8589C146.296 32.5752 146.653 33.5303 146.653 34.7241C146.653 35.5596 146.415 36.395 146.057 36.9922C145.699 37.5889 145.223 38.0664 144.627 38.5439C144.031 38.9023 143.435 39.1411 142.719 39.2603C142.004 39.2603 141.289 39.3799 140.574 39.3799Z" fill="#151515" fill-opacity="1.000000" fill-rule="nonzero"/>
		<path id="Vector" d="M26.8496 17.6523C26.4919 17.7715 26.0151 17.8911 25.6575 18.0103C24.9423 18.249 24.4655 18.8462 24.1078 19.5625C23.2734 21.2339 23.3926 23.1436 23.3926 25.0537C23.5118 28.1577 23.7502 31.2617 23.9886 34.4849C23.9886 34.7236 23.9886 34.9624 24.2271 35.082C24.4655 35.3208 24.8231 35.4399 25.0615 35.4399C28.28 35.9175 31.6178 36.395 34.5979 34.8433C34.8363 34.7236 35.0747 34.4849 35.0747 34.2461C35.0747 34.127 34.9556 34.0078 34.8363 33.8882C34.3595 33.1719 33.6442 32.6943 33.1674 31.978C32.2139 30.665 32.333 28.5161 33.6442 27.6802C33.8827 27.561 34.2404 27.4414 34.3595 27.2026C34.7172 26.7251 34.4788 25.8896 35.0747 25.5312C35.1938 25.4121 35.4323 25.4121 35.6707 25.2925C36.8628 24.8149 36.9821 23.0244 36.5052 21.8306C35.9091 20.5176 34.7172 19.4429 33.4058 18.8462C31.6178 17.7715 28.9952 17.2939 26.8496 17.6523Z" fill="#00A0B4" fill-opacity="1.000000" fill-rule="nonzero"/>
		<path id="Vector" d="M65.4739 39.1411C64.7588 36.5146 58.9177 13.3545 58.5601 11.564C57.8448 8.5791 54.1495 7.26611 51.1693 8.45996C49.7389 9.05664 23.3945 16.4585 23.3945 16.4585C23.3945 16.4585 40.6793 17.5327 36.9839 25.0537C36.5071 26.1284 32.6925 29.2324 32.335 30.1875C32.4541 30.1875 32.5734 30.3066 32.5734 30.3066C34.9574 31.7393 37.58 33.8882 39.964 34.9624C41.2754 35.5596 42.9442 38.186 42.4673 39.8574C41.2754 44.1548 41.8713 43.2002 38.8912 42.0059C37.8184 41.5288 36.8647 42.7222 35.9111 42.1255C34.9574 43.4385 38.5337 42.9614 34.9574 43.6777C34.9574 43.6777 58.7986 45.707 60.5865 45.8262C64.9971 46.1846 66.666 44.0356 65.4739 39.1411Z" fill="#009CCA" fill-opacity="1.000000" fill-rule="nonzero"/>
		<g opacity="0.600000">
			<path id="Vector" d="M19.1006 1.41602C16.7166 3.20703 3.00793 13.3545 1.45825 14.6675C-0.806641 16.6968 -0.329834 19.9204 2.17346 21.8306C3.48474 22.7852 22.6768 37.1113 22.6768 37.1113C22.6768 37.1113 24.9417 32.5747 24.584 26.9639C24.4648 25.5312 23.988 22.4272 24.2264 21.1143C24.3456 20.2783 24.4648 19.3232 25.1801 18.8457C25.5377 18.6069 25.8953 18.6069 26.2529 18.4878C28.3986 18.249 30.5443 18.6069 32.3324 19.6816C33.0476 20.0396 33.6436 20.5171 34.3588 20.8755C35.4316 21.353 36.0277 20.9946 36.9813 20.8755C37.5774 20.7559 38.1733 20.6367 38.6501 21.353C38.6501 21.353 28.3986 4.87793 27.3257 3.20703C24.8224 -0.494141 22.2 -0.852051 19.1006 1.41602Z" fill="#8480AD" fill-opacity="1.000000" fill-rule="nonzero"/>
		</g>
		<g opacity="0.500000">
			<path id="Vector" d="M7.89355 56.5708C9.44324 57.7646 9.92004 58.0034 11.4697 58.9585C13.2577 60.0327 15.5226 60.6299 18.2644 58.9585C23.9862 55.377 40.3173 44.394 42.8206 42.2451C44.4895 40.8125 43.1782 38.6636 42.463 36.7534C42.2246 36.1567 38.5292 34.8433 37.9332 34.6045C34.1187 33.0527 32.8074 34.7241 29.1121 34.9629C28.516 34.9629 27.8008 34.9629 27.3239 34.7241C26.847 34.4854 26.4895 34.127 26.2511 33.769C24.3438 31.6201 25.8936 27.6802 25.0591 25.0542C24.463 22.9053 22.4365 17.1748 22.4365 17.1748C22.4365 17.1748 8.4895 46.6621 7.77429 48.4526C6.22461 51.915 5.03259 54.3027 7.89355 56.5708Z" fill="#00A0B4" fill-opacity="1.000000" fill-rule="nonzero"/>
		</g>
		<path id="Vector" d="M23.3945 16.458L33.7654 13.4736L38.0569 20.2783L23.3945 16.458Z" fill="#8480AD" fill-opacity="1.000000" fill-rule="nonzero"/>
		<path id="Vector" d="M15.5234 31.7397L22.9142 37.1118L22.4374 17.2944L15.5234 31.7397Z" fill="#00A0B4" fill-opacity="1.000000" fill-rule="nonzero"/>
		<path id="Vector" d="M37.3418 43.917C36.1498 43.917 34.9578 43.7974 33.8849 43.5586C32.812 43.3198 31.7393 42.9619 30.7855 42.4844C30.3087 42.2456 30.0703 41.7681 30.0703 41.2905L30.0703 40.5742C30.0703 40.0967 30.3087 39.6191 30.7855 39.3804C31.2625 39.1416 31.8584 39.1416 32.2161 39.3804C32.9312 39.7383 33.7657 40.0967 34.6001 40.2158C36.0306 40.5742 37.5802 40.5742 38.8915 40.3354C39.3683 40.2158 39.726 40.0967 40.0835 39.9771C40.3219 39.8579 40.5604 39.6191 40.6796 39.3804C40.7988 39.1416 40.918 38.9028 40.918 38.5444C40.918 38.1865 40.7988 37.8281 40.6796 37.5898C40.4412 37.2314 40.2028 36.9927 39.9644 36.8735C39.6067 36.6343 39.1299 36.3955 38.5339 36.1572C37.9379 35.9185 37.2227 35.6797 36.6266 35.5601C35.9114 35.3213 35.1962 35.0825 34.6001 34.8438C33.8849 34.605 33.1696 34.2471 32.5736 33.7695C31.9777 33.292 31.3816 32.8145 31.024 32.0981C30.5471 31.3818 30.3087 30.5459 30.3087 29.5908C30.3087 28.6357 30.5471 27.8003 30.9047 27.084C31.2625 26.3677 31.8584 25.771 32.5736 25.4126C33.1696 25.0547 33.8849 24.6963 34.7194 24.4575C36.3882 24.0996 38.1763 24.0996 39.9644 24.4575C40.918 24.6963 41.8716 25.0547 42.5869 25.4126C43.0637 25.6514 43.3021 26.1289 43.3021 26.6064L43.3021 27.4419C43.3021 27.9194 43.0637 28.397 42.5869 28.6357C42.11 28.8745 41.514 28.8745 41.1564 28.6357C40.6796 28.397 40.0835 28.1582 39.3683 27.9194C38.6531 27.8003 37.9379 27.6812 37.2227 27.6812C36.7458 27.6812 36.269 27.6812 35.7922 27.8003C35.4346 27.9194 35.0769 28.0391 34.7194 28.1582C34.481 28.2778 34.2426 28.5166 34.1233 28.7554C34.0042 28.9941 33.8849 29.2329 33.8849 29.5908C33.8849 30.188 34.1233 30.4268 34.2426 30.6655C34.6001 31.0234 35.1962 31.3818 35.7922 31.6206C36.5074 31.9785 37.3418 32.2173 38.1763 32.4561C39.1299 32.6948 40.0835 33.0532 40.918 33.5308C41.8716 34.0083 42.7061 34.605 43.3021 35.3213C44.0173 36.1572 44.4941 37.2314 44.4941 38.5444C44.4941 39.4995 44.2557 40.3354 43.7789 41.0518C43.3021 41.7681 42.7061 42.3647 41.9908 42.7231C41.2756 43.0811 40.5604 43.4395 39.726 43.5586C39.0107 43.7974 38.1763 43.917 37.3418 43.917Z" fill="#FFFFFF" fill-opacity="1.000000" fill-rule="nonzero"/>
		<path id="Vector" d="M39.3668 22.7852C38.8899 21.4722 38.1747 20.2783 37.2212 19.3232C36.2675 18.3682 35.0754 17.6519 33.6449 17.0552C32.3337 16.5776 30.6648 16.2192 28.8767 16.2192L23.8701 16.2192C23.0358 16.2192 22.3204 16.9355 22.3204 17.771L22.3204 35.6787C22.3204 36.5142 23.0358 37.2305 23.8701 37.2305L28.996 37.2305C30.7841 37.2305 32.3337 36.9917 33.7642 36.395C35.1946 35.917 36.3866 35.0815 37.3403 34.1265C37.6979 33.7686 37.9363 33.4102 38.2939 33.0522C37.1019 32.6938 35.9098 32.0972 34.9562 31.3809C34.9562 31.5 34.837 31.5 34.837 31.6196C34.241 32.2163 33.5258 32.6938 32.5721 32.9326C31.6184 33.291 30.5457 33.4102 29.1151 33.4102L26.2543 33.4102L26.2543 20.0396L29.1151 20.0396C30.4264 20.0396 31.6184 20.1587 32.5721 20.5171C33.5258 20.875 34.241 21.3525 34.837 21.8301C35.433 22.4272 35.7906 23.1436 36.1482 23.8599C36.5059 24.6953 36.625 25.6504 36.625 26.7246C36.625 26.8442 36.625 26.9639 36.625 27.083C37.8171 26.8442 39.1284 27.083 40.3204 27.5605C40.3204 27.3218 40.3204 26.9639 40.3204 26.7246C40.082 25.4116 39.8436 24.0986 39.3668 22.7852Z" fill="#FFFFFF" fill-opacity="1.000000" fill-rule="nonzero"/>
		<path id="Vector" d="M73.2158 44.9907L72.9775 44.9907L72.9775 42.7227L72.0238 44.2744L71.0702 42.7227L71.0702 44.9907L70.8318 44.9907L70.8318 42.2451L71.1893 42.2451L72.1429 43.7969L73.0967 42.2451L73.4543 42.2451L73.4543 44.9907L73.2158 44.9907Z" fill="#151515" fill-opacity="1.000000" fill-rule="nonzero"/>
		<path id="Vector" d="M76.5522 43.6777L76.5522 43.7969L74.1681 43.7969C74.2872 44.3936 74.6449 44.752 75.3601 44.752C75.837 44.752 76.0754 44.5132 76.3137 44.2744L76.5522 44.3936C76.3138 44.752 75.9562 44.9907 75.3601 44.9907C74.5256 44.9907 73.9297 44.3936 73.9297 43.5581C73.9297 42.7222 74.5256 42.1255 75.3601 42.1255C76.0754 42.2451 76.5522 42.9614 76.5522 43.6777ZM74.1681 43.5581L76.3137 43.5581C76.3137 42.9614 75.837 42.4834 75.2408 42.4834C74.6449 42.4834 74.1681 42.9614 74.1681 43.5581Z" fill="#151515" fill-opacity="1.000000" fill-rule="nonzero"/>
		<path id="Vector" d="M79.652 44.9902L78.46 43.6772L78.46 44.9902L78.2214 44.9902L78.2214 43.6772L77.0295 44.9902L76.6719 44.9902L77.983 43.5576L76.791 42.2446L77.1487 42.2446L78.3407 43.4385L78.3407 42.2446L78.5792 42.2446L78.5792 43.4385L79.7712 42.2446L80.1288 42.2446L78.9368 43.5576L80.2479 44.9902L79.652 44.9902Z" fill="#151515" fill-opacity="1.000000" fill-rule="nonzero"/>
		<path id="Vector" d="M83.1128 44.7515L83.1128 45.7065L82.8744 45.7065L82.8744 44.9902L80.6095 44.9902L80.6095 45.7065L80.3711 45.7065L80.3711 44.7515L80.7286 44.7515C80.967 44.5127 80.967 44.1543 80.967 43.6768L80.967 42.3638L82.8744 42.3638L82.8744 44.7515L83.1128 44.7515ZM82.5168 44.7515L82.5168 42.6025L81.2054 42.6025L81.2054 43.6768C81.2054 44.1543 81.0863 44.5127 80.967 44.7515L82.5168 44.7515Z" fill="#151515" fill-opacity="1.000000" fill-rule="nonzero"/>
		<path id="Vector" d="M85.853 42.2446L84.6609 45.229C84.4225 45.7065 84.0648 46.0649 83.588 46.0649L83.588 45.8262C83.9457 45.8262 84.1841 45.5874 84.4225 45.229L84.4225 45.1099L83.2305 42.3643L83.4689 42.3643L84.5416 44.7515L85.4954 42.3643L85.853 42.3643L85.853 42.2446Z" fill="#151515" fill-opacity="1.000000" fill-rule="nonzero"/>
		<path id="Vector" d="M88.595 42.2446L88.595 44.9902L88.3566 44.9902L88.3566 43.7969L86.6876 43.7969L86.6876 44.9902L86.4492 44.9902L86.4492 42.2446L86.6876 42.2446L86.6876 43.4385L88.3566 43.4385L88.3566 42.2446L88.595 42.2446Z" fill="#151515" fill-opacity="1.000000" fill-rule="nonzero"/>
		<path id="Vector" d="M92.0522 42.2446L92.0522 44.9902L91.8137 44.9902L91.8137 44.3936C91.5754 44.7515 91.2178 45.1099 90.6217 45.1099C89.9065 45.1099 89.1913 44.5127 89.1913 43.6772C89.1913 42.8413 89.7872 42.2446 90.6217 42.2446C91.0986 42.2446 91.5754 42.4834 91.8137 42.9609L91.8137 42.3643L92.0522 42.3643L92.0522 42.2446ZM91.8137 43.6772C91.8137 43.0806 91.337 42.4834 90.6217 42.4834C90.0256 42.4834 89.4297 42.9609 89.4297 43.6772C89.4297 44.2739 89.9065 44.8711 90.6217 44.8711C91.337 44.7515 91.8137 44.2739 91.8137 43.6772Z" fill="#151515" fill-opacity="1.000000" fill-rule="nonzero"/>
		<path id="Vector" d="M95.7437 43.6768C95.7437 44.5122 95.1477 45.1094 94.3134 45.1094C93.8364 45.1094 93.3596 44.8706 93.1212 44.3931L93.1212 46.0645L92.8828 46.0645L92.8828 42.2441L93.1212 42.2441L93.1212 42.9604C93.3596 42.6025 93.7172 42.2441 94.3134 42.2441C95.0286 42.2441 95.7437 42.8408 95.7437 43.6768ZM95.3861 43.6768C95.3861 43.0801 94.9093 42.4829 94.1941 42.4829C93.598 42.4829 93.002 42.9604 93.002 43.6768C93.002 44.2734 93.4788 44.8706 94.1941 44.8706C94.9093 44.7515 95.3861 44.2734 95.3861 43.6768Z" fill="#151515" fill-opacity="1.000000" fill-rule="nonzero"/>
		<path id="Vector" d="M96.1016 43.6777C96.1016 42.8418 96.6975 42.2451 97.532 42.2451C98.3665 42.2451 98.9624 42.8418 98.9624 43.6777C98.9624 44.5132 98.3665 45.1104 97.532 45.1104C96.8168 44.9907 96.1016 44.394 96.1016 43.6777ZM98.7241 43.6777C98.7241 43.0811 98.2473 42.4839 97.532 42.4839C96.9359 42.4839 96.34 42.9614 96.34 43.6777C96.34 44.2744 96.8168 44.8716 97.532 44.8716C98.2473 44.752 98.7241 44.2744 98.7241 43.6777Z" fill="#151515" fill-opacity="1.000000" fill-rule="nonzero"/>
		<path id="Vector" d="M102.062 44.7515L102.062 45.7065L101.824 45.7065L101.824 44.9902L99.5588 44.9902L99.5588 45.7065L99.3204 45.7065L99.3204 44.7515L99.678 44.7515C99.9165 44.5127 99.9165 44.1543 99.9165 43.6768L99.9165 42.3638L101.824 42.3638L101.824 44.7515L102.062 44.7515ZM101.466 44.7515L101.466 42.6025L100.155 42.6025L100.155 43.6768C100.155 44.1543 100.036 44.5127 99.9165 44.7515L101.466 44.7515Z" fill="#151515" fill-opacity="1.000000" fill-rule="nonzero"/>
		<path id="Vector" d="M104.923 42.2451L104.923 44.9907L104.685 44.9907L104.685 43.7969L103.016 43.7969L103.016 44.9907L102.777 44.9907L102.777 42.2451L103.016 42.2451L103.016 43.439L104.685 43.439L104.685 42.2451L104.923 42.2451Z" fill="#151515" fill-opacity="1.000000" fill-rule="nonzero"/>
		<path id="Vector" d="M108.384 42.2446L108.384 44.9902L108.146 44.9902L108.146 44.3936C107.908 44.7515 107.55 45.1099 106.954 45.1099C106.239 45.1099 105.523 44.5127 105.523 43.6772C105.523 42.8413 106.119 42.2446 106.954 42.2446C107.431 42.2446 107.908 42.4834 108.146 42.9609L108.146 42.3643L108.384 42.3643L108.384 42.2446ZM108.027 43.6772C108.027 43.0806 107.55 42.4834 106.835 42.4834C106.239 42.4834 105.643 42.9609 105.643 43.6772C105.643 44.2739 106.119 44.8711 106.835 44.8711C107.55 44.7515 108.027 44.2739 108.027 43.6772Z" fill="#151515" fill-opacity="1.000000" fill-rule="nonzero"/>
		<path id="Vector" d="M111.003 44.9902L110.765 44.9902L110.765 43.916L110.169 43.916L109.334 44.9902L108.977 44.9902L109.811 43.916C109.334 43.916 109.096 43.5576 109.096 43.0806C109.096 42.603 109.453 42.2446 109.93 42.2446L111.003 42.2446L111.003 44.9902ZM110.765 43.6772L110.765 42.603L109.93 42.603C109.573 42.603 109.334 42.8413 109.334 43.1997C109.334 43.5576 109.573 43.7969 109.93 43.7969L110.765 43.7969L110.765 43.6772Z" fill="#151515" fill-opacity="1.000000" fill-rule="nonzero"/>
		<path id="Vector" d="M113.148 43.6768C113.148 42.8408 113.744 42.2441 114.579 42.2441C115.056 42.2441 115.533 42.4829 115.771 42.9604L115.533 43.0801C115.413 42.7217 115.056 42.4829 114.579 42.4829C113.983 42.4829 113.387 42.9604 113.387 43.6768C113.387 44.2734 113.864 44.8706 114.579 44.8706C115.056 44.8706 115.413 44.6318 115.533 44.2734L115.771 44.3931C115.533 44.7515 115.056 45.1094 114.579 45.1094C113.744 44.9897 113.148 44.3931 113.148 43.6768Z" fill="#151515" fill-opacity="1.000000" fill-rule="nonzero"/>
		<path id="Vector" d="M118.513 42.2446L118.513 44.9902L118.274 44.9902L118.274 42.7222L116.606 44.9902L116.367 44.9902L116.367 42.2446L116.606 42.2446L116.606 44.5127L118.274 42.2446L118.513 42.2446Z" fill="#151515" fill-opacity="1.000000" fill-rule="nonzero"/>
		<path id="Vector" d="M119.109 43.6768C119.109 42.8408 119.705 42.2441 120.54 42.2441C121.017 42.2441 121.493 42.4829 121.732 42.9604L121.493 43.0801C121.374 42.7217 121.017 42.4829 120.54 42.4829C119.944 42.4829 119.348 42.9604 119.348 43.6768C119.348 44.2734 119.825 44.8706 120.54 44.8706C121.017 44.8706 121.374 44.6318 121.493 44.2734L121.732 44.3931C121.493 44.7515 121.017 45.1094 120.54 45.1094C119.705 44.9897 119.109 44.3931 119.109 43.6768Z" fill="#151515" fill-opacity="1.000000" fill-rule="nonzero"/>
		<path id="Vector" d="M124.236 42.6025L123.282 42.6025L123.282 44.9902L123.043 44.9902L123.043 42.6025L122.09 42.6025L122.09 42.3638L124.355 42.3638L124.355 42.6025L124.236 42.6025Z" fill="#151515" fill-opacity="1.000000" fill-rule="nonzero"/>
		<path id="Vector" d="M127.095 43.6768L127.095 43.7964L124.711 43.7964C124.83 44.3931 125.188 44.7515 125.903 44.7515C126.38 44.7515 126.618 44.5127 126.857 44.2739L127.095 44.3931C126.857 44.7515 126.499 44.9902 125.903 44.9902C125.069 44.9902 124.473 44.3931 124.473 43.5576C124.473 42.7217 125.069 42.125 125.903 42.125C126.618 42.2446 127.095 42.9609 127.095 43.6768ZM124.711 43.5576L126.857 43.5576C126.857 42.9609 126.38 42.4829 125.784 42.4829C125.188 42.4829 124.711 42.9609 124.711 43.5576Z" fill="#151515" fill-opacity="1.000000" fill-rule="nonzero"/>
		<path id="Vector" d="M130.314 44.9902L130.075 44.9902L130.075 42.7222L129.122 44.2739L128.168 42.7222L128.168 44.9902L127.93 44.9902L127.93 42.2446L128.287 42.2446L129.241 43.7969L130.195 42.2446L130.552 42.2446L130.552 44.9902L130.314 44.9902Z" fill="#151515" fill-opacity="1.000000" fill-rule="nonzero"/>
		<path id="Vector" d="M133.771 42.2441L133.771 44.9897L133.533 44.9897L133.533 44.3931C133.294 44.7515 132.937 45.1094 132.341 45.1094C131.625 45.1094 130.91 44.5122 130.91 43.6768C130.91 42.8408 131.506 42.2441 132.341 42.2441C132.817 42.2441 133.294 42.4829 133.533 42.9604L133.533 42.3638L133.771 42.3638L133.771 42.2441ZM133.533 43.6768C133.533 43.0801 133.056 42.4829 132.341 42.4829C131.745 42.4829 131.149 42.9604 131.149 43.6768C131.149 44.2734 131.625 44.8706 132.341 44.8706C133.056 44.7515 133.533 44.2734 133.533 43.6768Z" fill="#151515" fill-opacity="1.000000" fill-rule="nonzero"/>
		<path id="Vector" d="M139.615 42.2446L139.615 44.9902L136.039 44.9902L136.039 42.2446L136.277 42.2446L136.277 44.6323L137.708 44.6323L137.708 42.2446L137.946 42.2446L137.946 44.6323L139.258 44.6323L139.258 42.2446L139.615 42.2446Z" fill="#151515" fill-opacity="1.000000" fill-rule="nonzero"/>
		<path id="Vector" d="M142.118 44.9902L140.688 43.6772L140.688 44.9902L140.449 44.9902L140.449 42.2446L140.688 42.2446L140.688 43.4385L141.999 42.2446L142.356 42.2446L140.926 43.5576L142.476 44.9902L142.118 44.9902Z" fill="#151515" fill-opacity="1.000000" fill-rule="nonzero"/>
		<path id="Vector" d="M142.594 43.6772C142.594 42.8413 143.19 42.2446 144.024 42.2446C144.859 42.2446 145.455 42.8413 145.455 43.6772C145.455 44.5127 144.859 45.1099 144.024 45.1099C143.19 44.9902 142.594 44.3936 142.594 43.6772ZM145.097 43.6772C145.097 43.0806 144.62 42.4834 143.905 42.4834C143.309 42.4834 142.713 42.9609 142.713 43.6772C142.713 44.2739 143.19 44.8711 143.905 44.8711C144.62 44.7515 145.097 44.2739 145.097 43.6772Z" fill="#151515" fill-opacity="1.000000" fill-rule="nonzero"/>
		<path id="Vector" d="M148.078 44.9902L147.839 44.9902L147.839 42.6025L146.528 42.6025L146.528 43.9155C146.528 44.8706 146.17 45.1094 145.574 44.9902L145.574 44.7515C145.932 44.7515 146.17 44.5127 146.17 43.9155L146.17 42.3638L148.078 42.3638L148.078 44.9902Z" fill="#151515" fill-opacity="1.000000" fill-rule="nonzero"/>
		<path id="Vector" d="M152.607 42.2441L152.607 44.9897L152.368 44.9897L152.368 42.7217L150.699 44.9897L150.461 44.9897L150.461 42.2441L150.699 42.2441L150.699 44.5122L152.368 42.2441L152.607 42.2441Z" fill="#151515" fill-opacity="1.000000" fill-rule="nonzero"/>
		<path id="Vector" d="M155.591 42.2446L155.591 44.9902L155.353 44.9902L155.353 43.7969L153.684 43.7969L153.684 44.9902L153.445 44.9902L153.445 42.2446L153.684 42.2446L153.684 43.4385L155.353 43.4385L155.353 42.2446L155.591 42.2446Z" fill="#151515" fill-opacity="1.000000" fill-rule="nonzero"/>
		<path id="Vector" d="M156.301 43.6768C156.301 42.8408 156.897 42.2441 157.731 42.2441C158.566 42.2441 159.162 42.8408 159.162 43.6768C159.162 44.5122 158.566 45.1094 157.731 45.1094C156.897 44.9897 156.301 44.3931 156.301 43.6768ZM158.804 43.6768C158.804 43.0801 158.327 42.4829 157.612 42.4829C157.016 42.4829 156.42 42.9604 156.42 43.6768C156.42 44.2734 156.897 44.8706 157.612 44.8706C158.327 44.7515 158.804 44.2734 158.804 43.6768Z" fill="#151515" fill-opacity="1.000000" fill-rule="nonzero"/>
		<path id="Vector" d="M159.523 43.6772C159.523 42.8413 160.119 42.2446 160.954 42.2446C161.431 42.2446 161.908 42.4834 162.146 42.9609L161.908 43.0806C161.788 42.7222 161.431 42.4834 160.954 42.4834C160.358 42.4834 159.762 42.9609 159.762 43.6772C159.762 44.2739 160.239 44.8711 160.954 44.8711C161.431 44.8711 161.788 44.6323 161.908 44.2739L162.146 44.3936C161.908 44.7515 161.431 45.1099 160.954 45.1099C160.119 44.9902 159.523 44.3936 159.523 43.6772Z" fill="#151515" fill-opacity="1.000000" fill-rule="nonzero"/>
		<path id="Vector" d="M164.529 42.6025L163.575 42.6025L163.575 44.9902L163.337 44.9902L163.337 42.6025L162.383 42.6025L162.383 42.3638L164.648 42.3638L164.648 42.6025L164.529 42.6025Z" fill="#151515" fill-opacity="1.000000" fill-rule="nonzero"/>
		<path id="Vector" d="M167.865 43.6772C167.865 44.5127 167.269 45.1099 166.434 45.1099C165.958 45.1099 165.481 44.8711 165.242 44.3936L165.242 46.0649L165.004 46.0649L165.004 42.2446L165.242 42.2446L165.242 42.9609C165.481 42.603 165.838 42.2446 166.434 42.2446C167.269 42.2446 167.865 42.8413 167.865 43.6772ZM167.626 43.6772C167.626 43.0806 167.15 42.4834 166.434 42.4834C165.838 42.4834 165.242 42.9609 165.242 43.6772C165.242 44.2739 165.719 44.8711 166.434 44.8711C167.03 44.7515 167.626 44.2739 167.626 43.6772Z" fill="#151515" fill-opacity="1.000000" fill-rule="nonzero"/>
		<path id="Vector" d="M171.084 42.2446L171.084 44.9902L170.845 44.9902L170.845 44.3936C170.607 44.7515 170.249 45.1099 169.653 45.1099C168.938 45.1099 168.223 44.5127 168.223 43.6772C168.223 42.8413 168.819 42.2446 169.653 42.2446C170.13 42.2446 170.607 42.4834 170.845 42.9609L170.845 42.3643L171.084 42.3643L171.084 42.2446ZM170.845 43.6772C170.845 43.0806 170.368 42.4834 169.653 42.4834C169.057 42.4834 168.461 42.9609 168.461 43.6772C168.461 44.2739 168.938 44.8711 169.653 44.8711C170.368 44.7515 170.845 44.2739 170.845 43.6772Z" fill="#151515" fill-opacity="1.000000" fill-rule="nonzero"/>
		<path id="Vector" d="M174.185 42.2441L174.185 44.9897L173.946 44.9897L173.946 43.7959L172.277 43.7959L172.277 44.9897L172.039 44.9897L172.039 42.2441L172.277 42.2441L172.277 43.438L173.946 43.438L173.946 42.2441L174.185 42.2441Z" fill="#151515" fill-opacity="1.000000" fill-rule="nonzero"/>
		<path id="Vector" d="M177.165 42.2451L177.165 44.9907L176.927 44.9907L176.927 43.7969L175.258 43.7969L175.258 44.9907L175.02 44.9907L175.02 42.2451L175.258 42.2451L175.258 43.439L176.927 43.439L176.927 42.2451L177.165 42.2451Z" fill="#151515" fill-opacity="1.000000" fill-rule="nonzero"/>
		<path id="Vector" d="M183.124 44.9907L182.17 43.7969L181.217 44.9907L180.859 44.9907L181.932 43.5581L180.978 42.2451L181.336 42.2451L182.17 43.3198L183.005 42.2451L183.362 42.2451L182.409 43.5581L183.482 44.9907L183.124 44.9907Z" fill="#151515" fill-opacity="1.000000" fill-rule="nonzero"/>
		<path id="Vector" d="M187.417 44.9902L187.179 44.9902L187.179 43.916L186.583 43.916L185.748 44.9902L185.391 44.9902L186.225 43.916C185.748 43.916 185.51 43.5576 185.51 43.0806C185.51 42.603 185.867 42.2446 186.344 42.2446L187.417 42.2446L187.417 44.9902ZM187.179 43.6772L187.179 42.603L186.344 42.603C185.987 42.603 185.748 42.8413 185.748 43.1997C185.748 43.5576 185.987 43.7969 186.344 43.7969L187.179 43.7969L187.179 43.6772Z" fill="#151515" fill-opacity="1.000000" fill-rule="nonzero"/>
		<path id="Vector" d="M190.034 44.2739C190.034 44.6318 189.677 45.1094 189.081 45.1094C188.485 45.1094 188.127 44.8706 188.008 44.5127L188.246 44.3931C188.365 44.7515 188.604 44.8706 189.081 44.8706C189.557 44.8706 189.796 44.6318 189.796 44.2739C189.796 44.0352 189.557 43.7964 189.2 43.7964L188.842 43.7964L188.842 43.5576L189.081 43.5576C189.438 43.5576 189.677 43.3188 189.677 43.0801C189.677 42.8413 189.438 42.6025 189.081 42.6025C188.723 42.6025 188.485 42.7217 188.365 43.0801L188.127 42.9604C188.246 42.6025 188.604 42.3638 189.081 42.3638C189.677 42.3638 190.034 42.7217 190.034 43.0801C190.034 43.3188 189.915 43.5576 189.677 43.6768C189.915 43.6768 190.034 43.9155 190.034 44.2739Z" fill="#151515" fill-opacity="1.000000" fill-rule="nonzero"/>
		<path id="Vector" d="M192.54 44.1543C192.54 44.6318 192.182 44.9897 191.706 44.9897L190.633 44.9897L190.633 42.2441L190.871 42.2441L190.871 43.3188L191.706 43.3188C192.182 43.3188 192.54 43.6768 192.54 44.1543ZM192.302 44.1543C192.302 43.7964 192.063 43.5571 191.706 43.5571L190.871 43.5571L190.871 44.6318L191.706 44.6318C192.063 44.7515 192.302 44.5122 192.302 44.1543ZM193.255 42.2441L193.255 44.9897L193.017 44.9897L193.017 42.2441L193.255 42.2441Z" fill="#151515" fill-opacity="1.000000" fill-rule="nonzero"/>
		<path id="Vector" d="M179.782 44.1548C179.782 44.6323 179.425 44.9902 178.948 44.9902L177.875 44.9902L177.875 42.2446L178.113 42.2446L178.113 43.3193L178.948 43.3193C179.425 43.3193 179.782 43.6772 179.782 44.1548ZM179.544 44.1548C179.544 43.7969 179.305 43.5576 178.948 43.5576L178.113 43.5576L178.113 44.6323L178.948 44.6323C179.186 44.7515 179.544 44.5127 179.544 44.1548ZM180.498 42.2446L180.498 44.9902L180.259 44.9902L180.259 42.2446L180.498 42.2446Z" fill="#151515" fill-opacity="1.000000" fill-rule="nonzero"/>
		<path id="Vector" d="M195.763 44.9902L194.332 43.6772L194.332 44.9902L194.094 44.9902L194.094 42.2446L194.332 42.2446L194.332 43.4385L195.643 42.2446L196.001 42.2446L194.571 43.5576L196.12 44.9902L195.763 44.9902Z" fill="#151515" fill-opacity="1.000000" fill-rule="nonzero"/>
		<path id="Vector" d="M196.234 43.6772C196.234 42.8413 196.83 42.2446 197.665 42.2446C198.499 42.2446 199.095 42.8413 199.095 43.6772C199.095 44.5127 198.499 45.1099 197.665 45.1099C196.83 44.9902 196.234 44.3936 196.234 43.6772ZM198.738 43.6772C198.738 43.0806 198.261 42.4834 197.546 42.4834C196.95 42.4834 196.354 42.9609 196.354 43.6772C196.354 44.2739 196.83 44.8711 197.546 44.8711C198.261 44.7515 198.738 44.2739 198.738 43.6772Z" fill="#151515" fill-opacity="1.000000" fill-rule="nonzero"/>
		<path id="Vector" d="M201.837 44.2739C201.837 44.6323 201.599 44.9902 201.003 44.9902L199.691 44.9902L199.691 42.2446L200.883 42.2446C201.36 42.2446 201.718 42.603 201.718 42.9609C201.718 43.1997 201.599 43.4385 201.36 43.5576C201.718 43.6772 201.837 43.916 201.837 44.2739ZM199.93 42.603L199.93 43.5576L200.883 43.5576C201.241 43.5576 201.36 43.4385 201.36 43.0806C201.36 42.8413 201.122 42.603 200.883 42.603L199.93 42.603ZM201.599 44.2739C201.599 44.0356 201.36 43.7969 201.003 43.7969L199.93 43.7969L199.93 44.7515L201.003 44.7515C201.36 44.7515 201.599 44.5127 201.599 44.2739Z" fill="#151515" fill-opacity="1.000000" fill-rule="nonzero"/>
		<path id="Vector" d="M86.6953 33.0522C86.6953 32.2168 86.8145 31.5005 87.1721 30.7842C87.4105 30.0679 87.7682 29.5903 88.245 29.1128C88.7218 28.6353 89.1986 28.2769 89.7947 28.0381C90.3907 27.7998 90.9867 27.6802 91.5828 27.6802C92.5364 27.6802 93.2516 27.9189 93.9668 28.2769C94.5629 28.6353 95.0397 29.1128 95.3973 29.5903C95.7549 30.187 95.9933 30.7842 96.1125 31.3809C96.2317 31.978 96.2317 32.6943 96.1125 33.291L87.1721 33.291C87.1721 34.127 87.2913 34.8433 87.649 35.3208C87.8875 35.9175 88.3643 36.395 88.8411 36.7534C89.3179 37.1113 89.7947 37.3501 90.3907 37.5889C90.9867 37.708 91.5828 37.8276 92.298 37.8276C92.894 37.8276 93.49 37.708 94.0861 37.5889C94.6821 37.4692 95.1589 37.2305 95.6357 36.9922L95.6357 37.4692C95.1589 37.708 94.6821 37.9468 94.0861 38.0664C93.49 38.1855 92.894 38.3052 92.298 38.3052C91.5828 38.3052 90.8676 38.1855 90.2715 37.9468C89.5563 37.708 89.0795 37.4692 88.4834 36.9922C88.0066 36.5142 87.5297 36.0371 87.2913 35.3208C86.8145 34.7236 86.6953 33.8882 86.6953 33.0522ZM95.7549 32.8135C95.7549 32.3359 95.7549 31.8584 95.6357 31.2617C95.5165 30.6646 95.2781 30.187 95.0397 29.7095C94.6821 29.2319 94.3245 28.874 93.7284 28.5156C93.1324 28.1577 92.5364 28.0381 91.7019 28.0381C91.106 28.0381 90.6292 28.1577 90.0331 28.3965C89.5562 28.6353 89.0795 28.874 88.6027 29.2319C88.245 29.5903 87.8875 30.0679 87.649 30.6646C87.4105 31.2617 87.2913 31.8584 87.2913 32.6943L95.7549 32.6943L95.7549 32.8135Z" fill="#151515" fill-opacity="1.000000" fill-rule="nonzero"/>
		<path id="Vector" d="M92.1755 39.4995C91.3411 39.4995 90.5066 39.3799 89.7914 39.1411C88.957 38.9023 88.2417 38.5444 87.6458 37.9478C87.0497 37.4697 86.4536 36.7534 86.0959 35.918C85.7384 35.0825 85.5 34.1274 85.5 33.0527C85.5 32.0977 85.6191 31.1426 85.9768 30.3071C86.3344 29.4712 86.8113 28.8745 87.4073 28.2773C88.0033 27.6807 88.5992 27.3228 89.3146 26.9644C90.0298 26.7256 90.745 26.4868 91.5795 26.4868C92.6523 26.4868 93.7252 26.7256 94.4404 27.2031C95.2748 27.6807 95.8708 28.2773 96.3477 28.9937C96.8245 29.71 97.0629 30.4263 97.1821 31.2622C97.3013 32.0977 97.3013 32.814 97.1821 33.5303C97.0629 34.1274 96.5861 34.4854 95.9901 34.4854L88.3608 34.4854C88.3608 34.605 88.4801 34.7241 88.4801 34.8438C88.7185 35.3213 88.957 35.5601 89.3146 35.918C89.6722 36.1567 90.0298 36.3955 90.5066 36.5151C91.4603 36.7534 92.5331 36.7534 93.4867 36.5151C93.9636 36.3955 94.3212 36.2759 94.6788 36.0376C95.0364 35.7988 95.5132 35.7988 95.8708 36.0376C96.2285 36.2759 96.4669 36.6343 96.4669 37.1118L96.4669 37.5894C96.4669 37.9478 96.2285 38.4248 95.8708 38.5444C95.2748 38.9023 94.6788 39.1411 93.9636 39.2607C93.606 39.3799 92.8907 39.4995 92.1755 39.4995ZM88.4801 31.6201L94.4404 31.6201L94.4404 31.501C94.3212 31.1426 94.202 30.7847 93.9636 30.4263C93.7252 30.0684 93.4867 29.8296 93.0099 29.5908C92.6523 29.3521 92.1755 29.2324 91.5795 29.2324C91.1025 29.2324 90.745 29.3521 90.3875 29.4712C90.0298 29.5908 89.6722 29.8296 89.3146 30.0684C89.0762 30.3071 88.8378 30.665 88.5992 31.1426C88.5992 31.3813 88.5992 31.501 88.4801 31.6201Z" fill="#151515" fill-opacity="1.000000" fill-rule="nonzero"/>
		<path id="Vector" d="M100.639 29.3511C100.878 29.1123 101.235 28.7539 101.593 28.5156C101.95 28.2764 102.308 28.0376 102.785 27.9185C103.262 27.7993 103.738 27.6797 104.334 27.6797C104.931 27.6797 105.407 27.7993 105.884 27.9185C106.361 28.1572 106.838 28.396 107.076 28.7539C107.434 29.1123 107.672 29.5898 107.911 30.0674C108.149 30.5449 108.268 31.1416 108.268 31.8579L108.268 38.0659L107.791 38.0659L107.791 31.8579C107.791 31.2612 107.672 30.7837 107.553 30.3062C107.434 29.8286 107.076 29.4702 106.838 29.1123C106.48 28.7539 106.123 28.5156 105.765 28.396C105.288 28.2764 104.931 28.1572 104.454 28.1572C103.977 28.1572 103.381 28.2764 103.023 28.396C102.546 28.5156 102.189 28.7539 101.831 28.9927C101.474 29.2314 101.116 29.5898 100.878 29.8286C100.639 30.1865 100.401 30.4253 100.282 30.7837L100.282 37.9463L99.8047 37.9463L99.8047 27.7993L100.282 27.7993L100.282 30.0674C100.162 29.9478 100.401 29.709 100.639 29.3511Z" fill="#151515" fill-opacity="1.000000" fill-rule="nonzero"/>
		<path id="Vector" d="M108.267 39.2603L107.79 39.2603C107.194 39.2603 106.598 38.7827 106.598 38.0664L106.598 31.8584C106.598 31.3809 106.479 31.0229 106.36 30.6646C106.241 30.3066 106.121 30.0679 105.883 29.9482C105.645 29.7095 105.406 29.5903 105.168 29.4707C104.572 29.2319 103.737 29.2319 103.141 29.4707C102.784 29.5903 102.426 29.7095 102.188 29.9482C101.949 30.187 101.711 30.4258 101.472 30.6646C101.353 30.9033 101.234 31.0229 101.115 31.1421L101.115 37.9468C101.115 38.5439 100.638 39.1406 99.9229 39.1406L99.446 39.1406C98.8499 39.1406 98.2539 38.6631 98.2539 37.9468L98.2539 27.7998C98.2539 27.2026 98.7307 26.6055 99.446 26.6055L99.9229 26.6055C100.4 26.6055 100.876 26.9639 100.996 27.3218C101.353 27.0835 101.83 26.8447 102.307 26.7251C103.499 26.3672 104.929 26.2476 106.121 26.7251C106.717 26.9639 107.313 27.3218 107.79 27.7998C108.267 28.2769 108.625 28.874 108.863 29.4707C109.102 30.0679 109.221 30.9033 109.221 31.6196L109.221 37.8276C109.34 38.7827 108.863 39.2603 108.267 39.2603Z" fill="#151515" fill-opacity="1.000000" fill-rule="nonzero"/>
		<path id="Vector" d="M111.484 38.0664L111.484 27.9189L112.08 27.9189L112.08 38.0664L111.484 38.0664Z" fill="#151515" fill-opacity="1.000000" fill-rule="nonzero"/>
		<path id="Vector" d="M112.077 39.2603L111.6 39.2603C111.004 39.2603 110.408 38.7827 110.408 38.0664L110.408 27.9189C110.408 27.3223 110.885 26.7251 111.6 26.7251L112.077 26.7251C112.673 26.7251 113.269 27.2026 113.269 27.9189L113.269 38.0664C113.269 38.7827 112.673 39.2603 112.077 39.2603ZM111.839 26.1284C111.481 26.1284 111.123 26.0088 110.885 25.77C110.527 25.5312 110.289 25.0537 110.289 24.5767C110.289 24.0986 110.527 23.6211 110.885 23.3823C111.481 22.9048 112.435 22.9048 113.031 23.3823C113.388 23.6211 113.627 24.0986 113.627 24.5767C113.627 25.0537 113.388 25.5312 113.031 25.77C112.554 26.0088 112.196 26.1284 111.839 26.1284ZM124.713 26.1284C124.355 26.1284 123.998 25.8896 123.759 25.6509C123.402 25.2925 123.282 24.8149 123.282 24.3374C123.282 23.8604 123.521 23.3823 123.998 23.144C124.594 22.666 125.547 22.7856 126.024 23.3823C126.382 23.7407 126.501 24.2183 126.501 24.6958C126.501 25.1733 126.024 26.9639 125.547 27.2026C125.309 27.3223 125.07 26.1284 124.713 26.1284Z" fill="#151515" fill-opacity="1.000000" fill-rule="nonzero"/>
		<path id="Vector" d="M115.42 30.3062C115.42 29.8286 115.539 29.4702 115.778 29.1123C116.016 28.7539 116.254 28.5156 116.612 28.2764C116.97 28.0376 117.327 27.9185 117.804 27.7993C118.281 27.6797 118.639 27.6797 119.115 27.6797C119.711 27.6797 120.427 27.7993 121.023 27.9185C121.619 28.0376 122.215 28.2764 122.572 28.5156L122.572 28.9927C122.215 28.7539 121.619 28.5156 121.023 28.396C120.427 28.2764 119.831 28.1572 119.115 28.1572C118.758 28.1572 118.4 28.1572 118.043 28.2764C117.685 28.396 117.327 28.5156 117.089 28.6348C116.85 28.7539 116.612 28.9927 116.374 29.2314C116.254 29.4702 116.135 29.8286 116.135 30.1865C116.135 30.7837 116.254 31.1416 116.612 31.5C116.97 31.8579 117.446 32.0967 117.923 32.2163C118.4 32.4551 118.996 32.5742 119.592 32.6938C120.188 32.813 120.784 33.0518 121.261 33.1714C121.738 33.4102 122.215 33.6489 122.572 34.0068C122.93 34.3652 123.049 34.8428 123.049 35.4395C123.049 35.917 122.93 36.2754 122.692 36.6333C122.453 36.9917 122.215 37.23 121.857 37.4688C121.499 37.708 121.142 37.8271 120.665 37.9463C120.188 38.0659 119.711 38.0659 119.235 38.0659C118.877 38.0659 118.519 38.0659 118.162 37.9463C117.804 37.9463 117.446 37.8271 117.089 37.708C116.731 37.5884 116.374 37.4688 116.135 37.3496C115.778 37.23 115.539 37.1108 115.301 36.8721L115.301 36.3945C115.539 36.5137 115.778 36.7529 116.135 36.8721C116.493 36.9917 116.731 37.1108 117.089 37.23C117.446 37.3496 117.804 37.3496 118.162 37.4688C118.519 37.4688 118.877 37.5884 119.235 37.5884C119.711 37.5884 120.069 37.5884 120.546 37.4688C120.903 37.3496 121.261 37.23 121.619 37.1108C121.976 36.9917 122.215 36.7529 122.334 36.5137C122.453 36.2754 122.572 35.917 122.572 35.5591C122.572 34.9619 122.453 34.604 122.095 34.2456C121.738 33.8877 121.261 33.6489 120.784 33.5293C120.307 33.2905 119.711 33.1714 119.115 33.0518C118.519 32.9326 117.923 32.6938 117.446 32.4551C116.97 32.2163 116.493 31.9775 116.135 31.6191C115.658 31.3804 115.42 30.9028 115.42 30.3062Z" fill="#151515" fill-opacity="1.000000" fill-rule="nonzero"/>
		<path id="Vector" d="M119.233 39.4995C118.876 39.4995 118.399 39.4995 118.041 39.3799C117.684 39.3799 117.207 39.2607 116.849 39.1411C116.491 39.022 116.015 38.9023 115.657 38.7832C115.299 38.6636 114.942 38.4248 114.703 38.186C114.346 37.9473 114.227 37.5894 114.227 37.231L114.227 36.7534C114.227 36.2759 114.465 35.918 114.823 35.6792C115.18 35.4404 115.657 35.4404 116.015 35.6792C116.253 35.7983 116.372 35.918 116.611 36.0371C116.849 36.1567 117.087 36.2759 117.445 36.2759C117.684 36.3955 118.041 36.3955 118.28 36.5146C118.995 36.6343 119.591 36.6343 120.187 36.5146C120.425 36.3955 120.664 36.3955 120.902 36.2759C121.021 36.1567 121.14 36.1567 121.26 36.0371C121.26 36.0371 121.379 35.918 121.379 35.6792C121.379 35.4404 121.26 35.3208 121.26 35.3208C121.021 35.082 120.664 34.9629 120.306 34.8433C119.829 34.7241 119.352 34.4854 118.756 34.3657C118.041 34.2466 117.445 34.0078 116.849 33.769C116.134 33.5303 115.657 33.0527 115.18 32.5752C114.584 31.9785 114.346 31.2622 114.346 30.3071C114.346 29.5908 114.465 28.9937 114.823 28.5161C115.18 28.0386 115.538 27.6807 116.015 27.3223C116.491 27.0835 116.968 26.8447 117.564 26.7256C118.756 26.4868 120.068 26.4868 121.26 26.8447C121.975 27.0835 122.571 27.3223 123.167 27.561C123.525 27.7998 123.763 28.1582 123.763 28.5161L123.763 28.9937C123.763 29.4712 123.525 29.8296 123.167 30.0684C122.809 30.3071 122.333 30.3071 121.975 30.0684C121.617 29.8296 121.26 29.71 120.783 29.5908C119.948 29.3521 119.114 29.3521 118.399 29.4712C118.16 29.4712 117.922 29.5908 117.803 29.71C117.684 29.8296 117.564 29.8296 117.445 29.9487C117.445 30.0684 117.326 30.1875 117.326 30.3071C117.326 30.665 117.445 30.665 117.445 30.7847C117.684 31.0234 118.041 31.1426 118.399 31.2622C118.876 31.3813 119.352 31.6201 119.948 31.7397C120.664 31.8589 121.26 32.0977 121.856 32.3364C122.571 32.5752 123.048 32.9331 123.525 33.4111C124.121 34.0078 124.359 34.7241 124.359 35.6792C124.359 36.3955 124.24 36.9922 123.882 37.4697C123.525 37.9473 123.167 38.3057 122.69 38.6636C122.213 38.9023 121.736 39.1411 121.14 39.2607C120.306 39.3799 119.829 39.4995 119.233 39.4995Z" fill="#151515" fill-opacity="1.000000" fill-rule="nonzero"/>
		<path id="Vector" d="M148.559 33.0527C148.559 32.0977 148.678 31.2622 149.036 30.665C149.394 29.9487 149.751 29.4712 150.347 28.9937C150.824 28.5161 151.42 28.2773 152.135 28.0386C152.731 27.7998 153.446 27.6807 154.043 27.6807C154.519 27.6807 154.996 27.7998 155.592 27.9194C156.069 28.0386 156.546 28.2773 157.023 28.5161L157.023 28.9937C156.665 28.7549 156.188 28.5161 155.592 28.397C155.115 28.2773 154.519 28.1582 154.043 28.1582C153.446 28.1582 152.85 28.2773 152.254 28.397C151.658 28.6357 151.182 28.8745 150.705 29.2324C150.228 29.5908 149.87 30.1875 149.513 30.7847C149.274 31.3813 149.036 32.0977 149.036 33.0527C149.036 33.8887 149.155 34.605 149.394 35.2017C149.632 35.7983 149.99 36.2764 150.466 36.6343C150.943 36.9922 151.42 37.3506 152.016 37.4697C152.612 37.7085 153.208 37.7085 153.804 37.7085C154.4 37.7085 154.996 37.5894 155.473 37.4697C156.069 37.3506 156.546 37.1118 157.023 36.873L157.023 37.3506C156.546 37.5894 155.95 37.8281 155.473 37.9473C154.877 38.0669 154.281 38.186 153.685 38.186C153.089 38.186 152.374 38.0669 151.778 37.8281C151.182 37.5894 150.586 37.3506 150.109 36.873C149.632 36.3955 149.274 35.918 148.917 35.2017C148.678 34.7241 148.559 34.0078 148.559 33.0527Z" fill="#151515" fill-opacity="1.000000" fill-rule="nonzero"/>
		<path id="Vector" d="M153.685 39.4995C152.97 39.4995 152.136 39.3799 151.42 39.1411C150.705 38.9023 149.99 38.5444 149.394 37.9473C148.798 37.4697 148.321 36.7534 147.963 35.918C147.606 35.082 147.367 34.127 147.367 33.0527C147.367 31.978 147.606 30.9038 147.963 30.0684C148.321 29.2324 148.917 28.5161 149.513 28.0386C150.109 27.561 150.824 27.0835 151.659 26.8447C152.97 26.3672 154.401 26.3672 155.831 26.7256C156.427 26.8447 157.142 27.2031 157.619 27.561C157.977 27.7998 158.096 28.1582 158.096 28.5161L158.096 28.9937C158.096 29.4712 157.857 29.8296 157.5 30.0684C157.142 30.3071 156.665 30.1875 156.308 29.9487C156.069 29.71 155.712 29.5908 155.235 29.4712C154.281 29.2324 153.447 29.2324 152.612 29.4712C152.136 29.5908 151.778 29.8296 151.42 30.1875C151.063 30.4263 150.824 30.7847 150.586 31.2622C150.348 31.7393 150.228 32.3364 150.228 32.9336C150.228 33.5303 150.348 34.127 150.586 34.6045C150.824 35.082 151.063 35.4404 151.301 35.6792C151.659 35.918 152.016 36.1567 152.374 36.2759C153.208 36.6343 154.281 36.5146 155.235 36.2759C155.712 36.1567 156.069 36.0371 156.427 35.7983C156.785 35.5596 157.261 35.5596 157.619 35.7983C157.977 36.0371 158.215 36.3955 158.215 36.873L158.215 37.3506C158.215 37.8281 157.977 38.186 157.619 38.4248C157.023 38.7832 156.427 39.022 155.712 39.1411C155.116 39.3799 154.401 39.4995 153.685 39.4995Z" fill="#151515" fill-opacity="1.000000" fill-rule="nonzero"/>
		<path id="Vector" d="M160.834 23.2627L160.834 30.187C160.953 29.9482 161.192 29.7095 161.43 29.3511C161.669 29.1123 162.026 28.7544 162.384 28.5156C162.742 28.2769 163.099 28.0381 163.576 27.9185C164.053 27.7993 164.53 27.6797 165.006 27.6797C165.602 27.6797 166.079 27.7993 166.556 27.9185C167.033 28.1572 167.51 28.396 167.748 28.7544C168.106 29.1123 168.344 29.5898 168.583 30.0674C168.821 30.5449 168.94 31.1421 168.94 31.8584L168.94 38.0659L168.463 38.0659L168.463 31.8584C168.463 31.2612 168.344 30.7837 168.225 30.3062C168.106 29.8286 167.748 29.4707 167.51 29.1123C167.152 28.7544 166.795 28.5156 166.437 28.396C165.96 28.2769 165.602 28.1572 165.126 28.1572C164.649 28.1572 164.053 28.2769 163.695 28.396C163.218 28.5156 162.861 28.7544 162.503 28.9932C162.146 29.2319 161.788 29.5898 161.55 29.8286C161.311 30.187 161.073 30.4258 160.953 30.7837L160.953 37.9468L160.477 37.9468L160.477 23.2627L160.834 23.2627Z" fill="#151515" fill-opacity="1.000000" fill-rule="nonzero"/>
		<path id="Vector" d="M169.06 39.2598L168.583 39.2598C167.987 39.2598 167.391 38.7822 167.391 38.0659L167.391 31.8584C167.391 31.3809 167.272 31.0225 167.153 30.6646C167.034 30.3062 166.914 30.0674 166.676 29.9482C166.438 29.7095 166.199 29.5898 165.961 29.4707C165.365 29.2319 164.53 29.2319 163.934 29.4707C163.577 29.5898 163.219 29.7095 162.981 29.9482C162.742 30.187 162.504 30.4258 162.265 30.6646C162.146 30.9033 162.027 31.0225 161.908 31.1421L161.908 37.9468C161.908 38.5435 161.431 39.1406 160.716 39.1406L160.239 39.1406C159.643 39.1406 159.047 38.6631 159.047 37.9468L159.047 23.2627C159.047 22.666 159.524 22.0688 160.239 22.0688L160.716 22.0688C161.312 22.0688 161.908 22.5464 161.908 23.2627L161.908 27.4409C162.265 27.2021 162.742 26.9634 163.219 26.8442C164.411 26.4858 165.842 26.4858 167.034 26.8442C167.63 27.083 168.226 27.4409 168.702 27.9185C169.179 28.396 169.537 28.9932 169.775 29.5898C170.014 30.187 170.133 31.0225 170.133 31.7388L170.133 37.9468C170.133 38.7822 169.656 39.2598 169.06 39.2598Z" fill="#151515" fill-opacity="1.000000" fill-rule="nonzero"/>
		<path id="Vector" d="M172.281 33.0522C172.281 32.2168 172.4 31.5005 172.758 30.7842C172.996 30.187 173.473 29.5903 173.95 29.1128C174.427 28.6353 175.023 28.2769 175.619 28.0381C176.215 27.7998 176.93 27.6802 177.526 27.6802C178.241 27.6802 178.838 27.7998 179.553 28.0381C180.149 28.2769 180.745 28.6353 181.222 29.1128C181.698 29.5903 182.056 30.0679 182.414 30.7842C182.652 31.3809 182.89 32.2168 182.89 33.0522C182.89 33.8882 182.771 34.6045 182.414 35.3208C182.175 35.9175 181.698 36.5142 181.222 36.9922C180.745 37.4692 180.149 37.8276 179.553 38.0664C178.957 38.3052 178.241 38.4243 177.526 38.4243C176.811 38.4243 176.215 38.3052 175.619 38.0664C175.023 37.8276 174.427 37.4692 173.95 36.9922C173.473 36.5142 173.116 36.0371 172.758 35.3208C172.52 34.6045 172.281 33.8882 172.281 33.0522ZM182.294 33.0522C182.294 32.3359 182.175 31.6196 181.937 31.0229C181.698 30.4258 181.341 29.9482 180.864 29.4707C180.387 29.1128 179.91 28.7544 179.314 28.5156C178.718 28.2769 178.122 28.1577 177.526 28.1577C176.93 28.1577 176.334 28.2769 175.738 28.5156C175.142 28.7544 174.665 28.9932 174.189 29.4707C173.712 29.8291 173.354 30.4258 173.116 31.0229C172.877 31.6196 172.758 32.3359 172.758 33.0522C172.758 33.7686 172.877 34.4849 173.116 35.0815C173.354 35.6787 173.712 36.1562 174.189 36.6338C174.665 36.9922 175.142 37.3501 175.738 37.5889C176.334 37.8276 176.93 37.9468 177.526 37.9468C178.122 37.9468 178.718 37.8276 179.314 37.5889C179.91 37.3501 180.387 37.1113 180.864 36.6338C181.341 36.2759 181.698 35.6787 181.937 35.0815C182.175 34.4849 182.294 33.7686 182.294 33.0522Z" fill="#151515" fill-opacity="1.000000" fill-rule="nonzero"/>
		<path id="Vector" d="M177.525 39.499C176.69 39.499 175.975 39.3799 175.141 39.0215C174.306 38.7827 173.71 38.3052 173.114 37.7085C172.518 37.1113 172.041 36.5146 171.684 35.6787C171.326 34.8433 171.207 34.0078 171.207 32.9331C171.207 31.978 171.445 31.0229 171.684 30.1875C172.041 29.3516 172.518 28.7549 173.114 28.1577C173.71 27.561 174.426 27.2026 175.141 26.8447C176.69 26.2476 178.359 26.2476 179.909 26.8447C180.624 27.0835 181.339 27.561 181.935 28.1577C182.532 28.7549 183.008 29.3516 183.366 30.1875C183.724 31.0229 183.843 31.8589 183.843 32.9331C183.843 33.8882 183.604 34.8433 183.366 35.6787C183.008 36.5146 182.532 37.1113 181.935 37.7085C181.339 38.3052 180.624 38.6636 179.909 39.0215C179.194 39.2603 178.359 39.499 177.525 39.499ZM177.525 29.3516C177.048 29.3516 176.571 29.4712 176.094 29.5903C175.618 29.71 175.26 29.9487 175.022 30.3066C174.664 30.665 174.426 31.0229 174.306 31.3813C174.068 31.8589 174.068 32.3364 174.068 32.9331C174.068 33.5298 174.187 34.127 174.306 34.4854C174.545 34.9624 174.783 35.3208 175.022 35.5596C175.379 35.918 175.737 36.0371 176.094 36.2759C176.929 36.6338 178.002 36.6338 178.836 36.2759C179.313 36.1562 179.671 35.918 179.909 35.5596C180.267 35.2017 180.505 34.8433 180.624 34.4854C180.863 34.0078 180.863 33.5298 180.863 32.9331C180.863 32.3364 180.743 31.7393 180.624 31.3813C180.386 30.9038 180.147 30.5454 179.909 30.3066C179.551 29.9487 179.194 29.8291 178.836 29.5903C178.479 29.4712 178.002 29.3516 177.525 29.3516Z" fill="#151515" fill-opacity="1.000000" fill-rule="nonzero"/>
		<path id="Vector" d="M186.109 33.0522C186.109 32.2168 186.229 31.5005 186.586 30.7842C186.825 30.187 187.301 29.5903 187.778 29.1128C188.255 28.6353 188.851 28.2769 189.447 28.0381C190.043 27.7998 190.758 27.6802 191.354 27.6802C192.07 27.6802 192.666 27.7998 193.381 28.0381C193.977 28.2769 194.573 28.6353 195.05 29.1128C195.527 29.5903 195.884 30.0679 196.242 30.7842C196.48 31.3809 196.719 32.2168 196.719 33.0522C196.719 33.8882 196.599 34.6045 196.242 35.3208C196.003 35.9175 195.527 36.5142 195.05 36.9922C194.573 37.4692 193.977 37.8276 193.381 38.0664C192.785 38.3052 192.07 38.4243 191.354 38.4243C190.639 38.4243 190.043 38.3052 189.447 38.0664C188.851 37.8276 188.255 37.4692 187.778 36.9922C187.301 36.5142 186.944 36.0371 186.586 35.3208C186.229 34.6045 186.109 33.8882 186.109 33.0522ZM196.003 33.0522C196.003 32.3359 195.884 31.6196 195.646 31.0229C195.407 30.4258 195.05 29.9482 194.573 29.4707C194.096 29.1128 193.619 28.7544 193.023 28.5156C192.427 28.2769 191.831 28.1577 191.235 28.1577C190.639 28.1577 190.043 28.2769 189.447 28.5156C188.851 28.7544 188.374 28.9932 187.897 29.4707C187.421 29.8291 187.063 30.4258 186.825 31.0229C186.586 31.6196 186.467 32.3359 186.467 33.0522C186.467 33.7686 186.586 34.4849 186.825 35.0815C187.063 35.6787 187.421 36.1562 187.897 36.6338C188.374 36.9922 188.851 37.3501 189.447 37.5889C190.043 37.8276 190.639 37.9468 191.235 37.9468C191.831 37.9468 192.427 37.8276 193.023 37.5889C193.619 37.3501 194.096 37.1113 194.573 36.6338C195.05 36.2759 195.407 35.6787 195.646 35.0815C195.884 34.4849 196.003 33.7686 196.003 33.0522Z" fill="#151515" fill-opacity="1.000000" fill-rule="nonzero"/>
		<path id="Vector" d="M191.349 39.499C190.515 39.499 189.799 39.3799 188.965 39.0215C188.131 38.7827 187.535 38.3052 186.939 37.7085C186.343 37.1113 185.866 36.5146 185.508 35.6787C185.15 34.8433 185.031 34.0078 185.031 32.9331C185.031 31.978 185.27 31.0229 185.508 30.1875C185.866 29.3516 186.343 28.7549 186.939 28.1577C187.535 27.561 188.25 27.2026 188.965 26.8447C190.515 26.2476 192.184 26.2476 193.733 26.8447C194.448 27.0835 195.164 27.561 195.76 28.1577C196.356 28.7549 196.833 29.3516 197.19 30.1875C197.548 31.0229 197.667 31.8589 197.667 32.9331C197.667 33.8882 197.429 34.8433 197.19 35.6787C196.833 36.5146 196.356 37.1113 195.76 37.7085C195.164 38.3052 194.448 38.6636 193.733 39.0215C192.899 39.2603 192.184 39.499 191.349 39.499ZM191.349 29.3516C190.872 29.3516 190.395 29.4712 189.919 29.5903C189.442 29.71 189.084 29.9487 188.846 30.3066C188.488 30.665 188.25 31.0229 188.131 31.3813C187.892 31.8589 187.892 32.3364 187.892 32.9331C187.892 33.5298 188.011 34.127 188.131 34.4854C188.369 34.9624 188.607 35.3208 188.846 35.5596C189.203 35.918 189.561 36.0371 189.919 36.2759C190.753 36.6338 191.826 36.6338 192.66 36.2759C193.137 36.1562 193.495 35.918 193.733 35.5596C194.091 35.2017 194.329 34.8433 194.448 34.4854C194.687 34.0078 194.687 33.5298 194.687 32.9331C194.687 32.3364 194.568 31.7393 194.448 31.3813C194.21 30.9038 193.972 30.5454 193.733 30.3066C193.376 29.9487 193.018 29.8291 192.66 29.5903C192.303 29.4712 191.826 29.3516 191.349 29.3516Z" fill="#151515" fill-opacity="1.000000" fill-rule="nonzero"/>
		<path id="Vector" d="M200.414 22.6665L200.414 38.0669L199.938 38.0669L199.938 22.6665L200.414 22.6665Z" fill="#151515" fill-opacity="1.000000" fill-rule="nonzero"/>
		<path id="Vector" d="M200.415 39.2603L199.938 39.2603C199.342 39.2603 198.746 38.7827 198.746 38.0669L198.746 22.6665C198.746 22.0693 199.223 21.4727 199.938 21.4727L200.415 21.4727C201.011 21.4727 201.607 21.9502 201.607 22.6665L201.607 38.0669C201.488 38.7827 201.011 39.2603 200.415 39.2603Z" fill="#151515" fill-opacity="1.000000" fill-rule="nonzero"/>
	</g>
</svg>
